<svg width="36" height="36" viewBox="0 0 36 36" fill="none" xmlns="http://www.w3.org/2000/svg">
<path d="M33.0004 19.047C32.9974 21.252 32.9809 23.124 32.8564 24.6615C32.7109 26.4465 32.4124 27.9375 31.7464 29.175C31.4554 29.7174 31.0864 30.2142 30.6514 30.6495C29.4019 31.899 27.8119 32.4645 25.7959 32.7345C23.8264 33 21.3004 33 18.0799 33H17.9209C14.6989 33 12.1759 33 10.2049 32.7345C8.19037 32.4645 6.59888 31.899 5.35088 30.6495C4.24388 29.5425 3.67087 28.1655 3.36787 26.457C3.06787 24.777 3.01388 22.689 3.00338 20.0955C3.00038 19.4355 2.99937 18.737 3.00037 18V17.919C3.00037 14.697 3.00038 12.174 3.26588 10.203C3.53588 8.18854 4.10137 6.59704 5.35088 5.34904C6.60038 4.10104 8.19037 3.53404 10.2049 3.26404C11.9569 3.02854 14.2099 3.00154 16.9534 2.99854C17.2311 2.99854 17.4974 3.10884 17.6937 3.30519C17.8901 3.50155 18.0004 3.76785 18.0004 4.04554C18.0004 4.32322 17.8901 4.58953 17.6937 4.78588C17.4974 4.98223 17.2311 5.09254 16.9534 5.09254C14.1709 5.09554 12.1024 5.11954 10.4839 5.33704C8.70038 5.57704 7.62488 6.03304 6.82988 6.82804C6.03488 7.62304 5.58038 8.70004 5.34038 10.485C5.09588 12.3 5.09288 14.682 5.09288 18V19.176L6.49088 17.955C7.10367 17.4189 7.89731 17.1356 8.7111 17.1626C9.52488 17.1897 10.298 17.5249 10.8739 18.1005L16.8589 24.0855C17.3232 24.5502 17.9366 24.836 18.591 24.8928C19.2455 24.9496 19.8989 24.7737 20.4364 24.396L20.8534 24.1035C21.6285 23.5587 22.5657 23.293 23.5114 23.35C24.4572 23.4069 25.3557 23.7831 26.0599 24.417L30.0094 27.972C30.4069 27.1365 30.6439 26.04 30.7699 24.492C30.8884 23.034 30.9049 21.264 30.9064 19.047C30.9064 18.7694 31.0167 18.503 31.213 18.3067C31.4094 18.1103 31.6757 18 31.9534 18C32.2311 18 32.4974 18.1103 32.6937 18.3067C32.8901 18.503 33.0004 18.7694 33.0004 19.047Z" fill="#A9A9A9"/>
<path fill-rule="evenodd" clip-rule="evenodd" d="M26.25 16.5C23.0685 16.5 21.477 16.5 20.4885 15.5115C19.5 14.523 19.5 12.9315 19.5 9.75C19.5 6.5685 19.5 4.977 20.4885 3.9885C21.477 3 23.0685 3 26.25 3C29.4315 3 31.023 3 32.0115 3.9885C33 4.977 33 6.5685 33 9.75C33 12.9315 33 14.523 32.0115 15.5115C31.023 16.5 29.4315 16.5 26.25 16.5ZM27.375 6.75C27.375 6.45163 27.2565 6.16548 27.0455 5.9545C26.8345 5.74353 26.5484 5.625 26.25 5.625C25.9516 5.625 25.6655 5.74353 25.4545 5.9545C25.2435 6.16548 25.125 6.45163 25.125 6.75V8.625H23.25C22.9516 8.625 22.6655 8.74353 22.4545 8.9545C22.2435 9.16548 22.125 9.45163 22.125 9.75C22.125 10.0484 22.2435 10.3345 22.4545 10.5455C22.6655 10.7565 22.9516 10.875 23.25 10.875H25.125V12.75C25.125 13.0484 25.2435 13.3345 25.4545 13.5455C25.6655 13.7565 25.9516 13.875 26.25 13.875C26.5484 13.875 26.8345 13.7565 27.0455 13.5455C27.2565 13.3345 27.375 13.0484 27.375 12.75V10.875H29.25C29.5484 10.875 29.8345 10.7565 30.0455 10.5455C30.2565 10.3345 30.375 10.0484 30.375 9.75C30.375 9.45163 30.2565 9.16548 30.0455 8.9545C29.8345 8.74353 29.5484 8.625 29.25 8.625H27.375V6.75Z" fill="#A9A9A9"/>
</svg>
