<svg width="150" height="150" viewBox="0 0 150 150" fill="none" xmlns="http://www.w3.org/2000/svg">
<rect width="150" height="150" rx="75" fill="#DDDDDD"/>
<path d="M65.5208 45.104C67.5188 45.104 69.3519 45.8507 70.6863 47.2303C72.0206 48.6113 72.8125 50.583 72.8125 52.9615C72.8125 55.3284 72.0308 57.704 70.7563 59.5021C69.4875 61.2915 67.65 62.604 65.5208 62.604C63.3917 62.604 61.5542 61.2915 60.2854 59.5021C59.0108 57.704 58.2292 55.3284 58.2292 52.963C58.2292 50.583 59.021 48.6113 60.3569 47.2303C61.6898 45.8507 63.5229 45.104 65.5208 45.104ZM49.4792 58.229C51.4771 58.229 53.3102 58.9757 54.6446 60.3553C55.979 61.7363 56.7708 63.708 56.7708 66.0865C56.7708 68.4534 55.9892 70.829 54.7146 72.6271C53.4458 74.4165 51.6083 75.729 49.4792 75.729C47.35 75.729 45.5125 74.4165 44.2438 72.6271C42.9692 70.829 42.1875 68.4519 42.1875 66.088C42.1875 63.708 42.9794 61.7363 44.3152 60.3553C45.6481 58.9757 47.4813 58.229 49.4792 58.229ZM75 68.4373C64.6108 68.4373 56.0038 77.2821 53.2942 88.3727C52.0925 93.2932 53.9256 98.5709 58.4465 101.072C62.0383 103.061 67.4138 104.896 74.9985 104.896C82.5848 104.896 87.9602 103.061 91.5535 101.072C96.0729 98.5709 97.906 93.2932 96.7044 88.3742C93.9963 77.2821 85.3877 68.4373 75 68.4373ZM100.521 58.229C98.5229 58.229 96.6898 58.9757 95.3569 60.3553C94.021 61.7363 93.2292 63.708 93.2292 66.0865C93.2292 68.4534 94.0108 70.829 95.2854 72.6271C96.5542 74.4165 98.3917 75.729 100.521 75.729C102.65 75.729 104.488 74.4165 105.756 72.6271C107.031 70.829 107.812 68.4534 107.812 66.088C107.812 63.708 107.021 61.7363 105.686 60.3553C104.352 58.9757 102.519 58.229 100.521 58.229ZM84.4792 45.104C82.4813 45.104 80.6481 45.8507 79.3152 47.2303C77.9794 48.6113 77.1875 50.583 77.1875 52.9615C77.1875 55.3284 77.9692 57.704 79.2438 59.5021C80.5125 61.2915 82.35 62.604 84.4792 62.604C86.6083 62.604 88.4458 61.2915 89.7146 59.5021C90.9892 57.704 91.7708 55.3284 91.7708 52.963C91.7708 50.583 90.979 48.6113 89.6446 47.2303C88.3102 45.8507 86.4771 45.104 84.4792 45.104Z" fill="#A9A9A9"/>
</svg>
