<svg width="24" height="24" viewBox="0 0 24 24" fill="none" xmlns="http://www.w3.org/2000/svg">
<path fill-rule="evenodd" clip-rule="evenodd" d="M4.45613 2.40102C4.18669 2.14079 3.82583 1.9968 3.45127 2.00005C3.0767 2.00331 2.7184 2.15355 2.45353 2.41842C2.18866 2.68329 2.03842 3.04159 2.03516 3.41616C2.03191 3.79072 2.1759 4.15159 2.43613 4.42102L9.99755 11.9824L2.43613 19.5439C2.29968 19.6757 2.19085 19.8333 2.11598 20.0076C2.04111 20.1819 2.0017 20.3693 2.00005 20.559C1.99841 20.7487 2.03455 20.9368 2.10638 21.1124C2.17821 21.2879 2.28429 21.4474 2.41842 21.5816C2.55255 21.7157 2.71205 21.8218 2.88762 21.8936C3.06319 21.9654 3.2513 22.0016 3.44098 21.9999C3.63067 21.9983 3.81813 21.9589 3.99242 21.884C4.16671 21.8091 4.32434 21.7003 4.45613 21.5639L12.0176 14.0024L19.579 21.5639C19.8484 21.8241 20.2093 21.9681 20.5838 21.9648C20.9584 21.9616 21.3167 21.8113 21.5816 21.5465C21.8465 21.2816 21.9967 20.9233 21.9999 20.5487C22.0032 20.1742 21.8592 19.8133 21.599 19.5439L14.0376 11.9824L21.599 4.42102C21.8592 4.15159 22.0032 3.79072 21.9999 3.41616C21.9967 3.04159 21.8465 2.68329 21.5816 2.41842C21.3167 2.15355 20.9584 2.00331 20.5838 2.00005C20.2093 1.9968 19.8484 2.14079 19.579 2.40102L12.0176 9.96245L4.45613 2.40102Z" fill="#FDFDFB"/>
</svg>
