<svg width="25" height="25" viewBox="0 0 25 25" fill="none" xmlns="http://www.w3.org/2000/svg">
<path d="M18.2298 9.89567C18.2298 6.729 15.6673 4.1665 12.5007 4.1665C9.33398 4.1665 6.77148 6.729 6.77148 9.89567C6.77148 12.7082 8.79232 15.0311 11.459 15.5207V17.7082H9.37565V19.7915H11.459V21.8748H13.5423V19.7915H15.6257V17.7082H13.5423V15.5207C16.209 15.0311 18.2298 12.7082 18.2298 9.89567ZM8.85482 9.89567C8.85482 7.88525 10.4902 6.24984 12.5007 6.24984C14.5111 6.24984 16.1465 7.88525 16.1465 9.89567C16.1465 11.9061 14.5111 13.5415 12.5007 13.5415C10.4902 13.5415 8.85482 11.9061 8.85482 9.89567Z" fill="#FDFDFB"/>
</svg>
