<svg width="24" height="24" viewBox="0 0 24 24" fill="none" xmlns="http://www.w3.org/2000/svg">
<path fill-rule="evenodd" clip-rule="evenodd" d="M20 7.66365C20 10.792 17.4531 13.3282 14.3121 13.3282C13.7397 13.3282 12.4348 13.1968 11.8003 12.6694L11.0065 13.4596C10.5394 13.9249 10.6654 14.0617 10.8733 14.2867C10.9597 14.3812 11.0605 14.4901 11.1388 14.6458C11.1388 14.6458 11.8003 15.5674 11.1388 16.4899C10.7419 17.0164 9.63043 17.7535 8.36146 16.4899L8.09686 16.7527C8.09686 16.7527 8.88975 17.6752 8.22916 18.5976C7.83227 19.1241 6.77389 19.6506 5.84782 18.729L4.92264 19.6506C4.28725 20.2833 3.51147 19.9143 3.20367 19.6506L2.40899 18.8604C1.66831 18.1224 2.1003 17.3233 2.40899 17.0155L9.28664 10.1665C9.28664 10.1665 8.62515 9.11353 8.62515 7.66455C8.62515 4.53618 11.1721 2 14.313 2C17.454 2 20 4.53618 20 7.66365ZM14.313 9.64003C14.838 9.64098 15.3418 9.43342 15.7138 9.06297C16.0858 8.69252 16.2954 8.18951 16.2966 7.66455C16.2961 7.40453 16.2444 7.14716 16.1445 6.90711C16.0446 6.66707 15.8983 6.44907 15.7141 6.26554C15.5299 6.08202 15.3114 5.93657 15.071 5.8375C14.8306 5.73844 14.573 5.68769 14.313 5.68817C14.053 5.68769 13.7955 5.73844 13.5551 5.8375C13.3147 5.93657 13.0961 6.08202 12.9119 6.26554C12.7277 6.44907 12.5815 6.66707 12.4816 6.90711C12.3816 7.14716 12.3299 7.40453 12.3295 7.66455C12.3307 8.18951 12.5403 8.69252 12.9122 9.06297C13.2842 9.43342 13.7881 9.64098 14.313 9.64003Z" fill="#FFD737"/>
</svg>
