<svg width="24" height="24" viewBox="0 0 24 24" fill="none" xmlns="http://www.w3.org/2000/svg">
<g clip-path="url(#clip0_596_44)">
<path d="M12.292 2.05991L23.542 6.80991C23.6783 6.8669 23.7947 6.9629 23.8765 7.08585C23.9583 7.2088 24.002 7.35321 24.002 7.50091C24.002 7.64861 23.9583 7.79302 23.8765 7.91597C23.7947 8.03891 23.6783 8.13492 23.542 8.19191L19 10.1079V14.9999C19 15.1379 18.9619 15.2732 18.89 15.3909C18.7764 15.5647 18.644 15.7262 18.497 15.8729C18.248 16.1289 17.872 16.4529 17.334 16.7689C16.254 17.4069 14.558 17.9989 12 17.9989C11.327 17.9989 10.714 17.9579 10.154 17.8859C9.96137 17.8552 9.78827 17.7507 9.67142 17.5945C9.55458 17.4383 9.5032 17.2427 9.52818 17.0492C9.55316 16.8557 9.65254 16.6796 9.80522 16.5582C9.95791 16.4368 10.1519 16.3797 10.346 16.3989C10.838 16.4619 11.388 16.4989 12 16.4989C14.317 16.4989 15.746 15.9659 16.572 15.4779C16.882 15.2999 17.168 15.0809 17.421 14.8279L17.5 14.7429V10.7399L12.292 12.9399C12.1996 12.979 12.1003 12.9991 12 12.9991C11.8997 12.9991 11.8004 12.979 11.708 12.9399L5.75001 10.4239V13.5939C6.25201 13.7229 6.71001 13.9849 7.07701 14.3519C7.65601 14.9299 8.00001 15.7619 8.00001 16.7799V21.2799C7.99957 21.4059 7.9678 21.5298 7.90758 21.6405C7.84736 21.7512 7.76057 21.8451 7.65501 21.9139C7.58742 21.9571 7.5173 21.9962 7.44501 22.0309C7.27689 22.114 7.10313 22.1852 6.92501 22.2439C6.3029 22.4423 5.65296 22.5396 5.00001 22.5319C4.34707 22.5396 3.69713 22.4423 3.07501 22.2439C2.8969 22.1852 2.72314 22.114 2.55501 22.0309C2.47914 21.9943 2.40566 21.9528 2.33501 21.9069C2.23271 21.8379 2.14875 21.745 2.09038 21.6363C2.03202 21.5276 2.001 21.4063 2.00001 21.2829V16.7829C2.00001 15.7629 2.34401 14.9329 2.92301 14.3529C3.28974 13.9865 3.74797 13.7251 4.25001 13.5959V9.79291L0.458014 8.18991C0.322722 8.13227 0.207359 8.03614 0.126272 7.91346C0.045185 7.79078 0.00195313 7.64697 0.00195312 7.49991C0.00195312 7.35285 0.045185 7.20904 0.126272 7.08636C0.207359 6.96368 0.322722 6.86754 0.458014 6.80991L11.708 2.05991C11.8004 2.02086 11.8997 2.00073 12 2.00073C12.1003 2.00073 12.1996 2.02086 12.292 2.05991ZM12 11.4359L21.322 7.49991L12 3.56391L2.67801 7.49991L12 11.4359ZM5.00001 14.9999C4.62301 14.9999 4.25501 15.1409 3.98301 15.4129C3.71801 15.6779 3.50001 16.1129 3.50001 16.7809V20.8029C3.79901 20.9079 4.29701 21.0309 5.00001 21.0309C5.70301 21.0309 6.20101 20.9079 6.50001 20.8029V16.7799C6.50001 16.1109 6.28201 15.6769 6.01701 15.4119C5.88297 15.2797 5.72413 15.1752 5.5496 15.1045C5.37508 15.0338 5.18831 14.9982 5.00001 14.9999Z" fill="#1E1E1E"/>
</g>
<defs>
<clipPath id="clip0_596_44">
<rect width="24" height="24" fill="white"/>
</clipPath>
</defs>
</svg>
