<svg width="454" height="567" viewBox="0 0 454 567" fill="none" xmlns="http://www.w3.org/2000/svg">
<g opacity="0.4">
<path d="M402.291 13.1788C401.085 -0.843003 399.59 1.11408 392.267 10.7228C384.599 20.7845 364.44 56.5713 364.44 56.5713L395.44 72.5713L399.082 85.7042C399.082 85.7042 402.847 19.6301 402.291 13.1788Z" fill="#FDFDFB"/>
<path d="M402.304 0.00110418L399.15 0.0458675C397.301 0.070425 395.215 0.413174 393.218 1.44917C392.172 1.99275 391.282 2.68599 390.514 3.44348L388.601 5.93262L387.993 7.02724L387.371 8.15808C386.793 9.20289 386.004 10.1814 384.907 11.091L383.844 11.9855L382.743 12.8729C379.74 15.3669 378.189 18.4926 378.033 21.7737L377.958 23.0825L377.898 24.3551C377.817 26.0671 377.574 27.6588 377.168 29.1227L376.868 30.2736L376.515 31.4537C376.494 31.5319 376.499 31.5754 376.442 31.6348C376.355 31.7254 376.076 31.9515 375.443 32.2687L373.895 33.0355L372.401 33.7732C369.346 35.2952 366.64 37.338 364.768 39.9995L364.06 41.0368L363.314 42.067C361.654 44.4325 360.691 46.9931 360.347 49.6145L360.186 50.8298L360.011 52.0812C359.815 53.5956 359.935 55.2377 360.734 56.7258C361.574 58.2892 362.984 59.3288 364.707 59.8649L365.7 60.1635L366.679 60.4984C367.064 60.6195 367.663 60.9312 368.306 61.8854L368.968 62.9013L369.607 63.874C370.618 65.3844 371.641 66.8992 372.634 68.4348L373.258 69.4437L373.935 70.4234C374.887 71.895 376.326 73.0328 378.253 73.6258C380.128 74.2 382.142 74.1892 384.07 73.8352L385.687 73.509L387.328 73.226C388.655 72.9828 389.51 73.1389 390.206 73.5585L390.307 73.6159L390.179 74.137C389.418 77.751 390.928 80.646 393.245 82.7891L394.321 83.803L395.139 84.5362C395.284 84.6935 395.389 84.8926 395.554 85.0401L396.099 85.529L396.683 86.0248L397.166 86.4634C397.184 86.4783 397.231 86.4921 397.267 86.5207C397.273 86.5259 397.402 86.6577 397.578 86.7722C397.63 86.8059 397.745 86.8716 397.88 86.9441C397.951 86.9823 398.365 87.1855 398.921 87.3293C399.168 87.3928 399.893 87.5698 400.891 87.4567C402.104 87.319 404.173 86.6639 405.504 84.7227C406.543 83.2056 406.396 81.8593 406.354 81.4943C406.294 80.9977 406.17 80.6306 406.105 80.4763C405.965 80.144 405.794 79.8955 405.748 79.8275C405.684 79.7333 405.623 79.6451 405.591 79.6042C405.535 79.5344 405.47 79.4915 405.443 79.4603C405.317 79.3208 405.172 79.1476 405.161 79.1364C404.939 78.9244 404.433 78.4673 403.688 77.7776C403.654 77.6062 403.624 77.3095 403.64 76.8742L403.75 74.5604C403.825 72.4888 403.166 70.754 402.073 69.3134C402.262 68.9392 402.391 68.5271 402.633 68.1322L403.361 66.943L404.103 65.7176C406.039 62.5465 406.42 59.2624 405.013 56.3154L404.495 55.2481L404.016 54.1879C403.418 52.938 403.081 51.7263 403.013 50.5423L402.962 49.4438L402.925 48.309C402.877 47.4651 403.054 46.5076 403.658 45.3704L404.295 44.2033L404.946 43C406.01 40.9972 406.937 38.978 407.75 36.9787L408.701 34.6245C410.011 31.3946 409.709 28.3519 408.113 25.7648L407.465 24.7126L406.879 23.7107C406.922 23.6406 406.946 23.5223 407.049 23.3918L409.054 20.8805C410.031 19.6495 411.175 17.9347 411.467 16.0322C411.626 14.9902 411.548 13.8472 411 12.796C410.455 11.7494 409.581 11.0377 408.676 10.5812L408.451 10.4233L408.726 9.53996L409.161 8.25825C409.743 6.49707 410.003 4.0251 408.264 2.1037C406.63 0.308402 404.108 -0.0194416 402.304 0.00110418ZM397.914 35.1775C397.241 36.8308 396.455 38.5015 395.558 40.1918L394.906 41.395L394.294 42.6054C392.937 45.163 392.241 47.784 392.388 50.386L392.463 51.5278L392.515 52.6264C392.645 54.8872 393.226 57.041 394.199 59.0806L395.234 61.2152C395.399 61.5604 395.409 61.7872 395.064 62.351L394.336 63.5402L393.958 64.171C391.809 63.5847 389.457 63.5278 386.978 63.982L385.336 64.2649L383.719 64.5911C383.512 64.6292 383.356 64.6172 383.252 64.6224L382.638 63.6929L381.961 62.7132C380.947 61.1449 379.934 59.5729 378.901 58.0297L378.262 57.057L377.585 56.0773C376.191 53.9951 374.234 52.3018 371.563 51.4738L370.569 51.1752L370.546 51.1319L370.622 50.3291L370.783 49.1139C370.94 47.9209 371.335 46.9131 371.936 46.0575L372.682 45.0272L373.39 43.9899C373.779 43.4372 374.584 42.6844 376.229 41.8648L377.724 41.1272L379.233 40.3533C382.744 38.6046 385.711 35.9052 386.738 32.1975L387.052 31.0104L387.352 29.8595C387.957 27.6763 388.312 25.4275 388.42 23.1312L388.48 21.8586L388.555 20.5498C388.589 19.8376 388.809 19.5758 389.144 19.2962L390.207 18.4017L391.308 17.5142C393.551 15.6532 395.344 13.4925 396.663 11.1042L397.285 9.97335L397.566 9.48036L398.317 9.46214L398.258 9.60701C397.453 12.0386 397.142 15.47 399.871 17.5652L398.815 18.85C397.598 20.3847 396.668 22.1592 396.372 24.0816C396.069 26.0441 396.491 27.8117 397.404 29.2885L398.067 30.3044L398.714 31.3566C399.106 31.9933 399.037 32.4 398.865 32.8233L397.914 35.1775Z" fill="#1E1E1E"/>
<path d="M275.207 16.832C276.32 2.57786 277.83 4.5725 285.227 14.3656C292.974 24.6202 310.361 57.8581 310.361 57.8581L283.94 76.5713L279.168 94.587C279.168 94.587 274.695 23.3902 275.207 16.832Z" fill="#FDFDFB"/>
<path d="M285.682 18.1697C285.528 18.0915 285.216 17.951 284.67 17.8104L282.879 17.3604L281.949 17.1028C282.504 18.0876 282.751 19.0368 282.834 19.7024C282.984 20.9219 282.802 22.1062 282.571 23.1348L282.351 24.2253L282.117 25.2795C281.791 26.7232 281.603 28.22 281.551 29.7008L281.448 31.8979C281.392 33.4611 281.46 35.0635 281.596 36.6553L281.674 37.7689L281.767 38.9188C281.979 41.4418 281.505 43.8086 280.462 46.0038L279.982 47.0641L279.464 48.1314C278.861 49.3984 278.541 50.6457 278.452 51.8564L278.273 54.0676C278.204 55.0105 278.423 56.0299 278.949 57.1722L279.47 58.3603L280.03 59.5415C280.976 61.5882 281.745 63.654 282.349 65.6905L283.026 67.9782C283.607 69.9342 283.927 71.8781 284.103 73.8102C284.146 73.7128 284.282 73.6506 284.323 73.5366L284.72 72.3747L285.155 71.2058C286.188 68.2964 288.399 66.1863 291.776 65.3258L293 64.985L294.239 64.6803C296.003 64.2333 297.716 63.7211 299.36 63.1591L300.493 62.7961L301.279 62.4964C301.326 62.3329 301.436 62.0002 301.408 61.3838L301.355 59.7209L301.287 58.0218C301.229 56.7663 301.153 55.8169 301.074 55.1436C301.035 54.8178 300.99 54.5969 300.964 54.4635L300.832 54.1375C300.81 54.11 300.782 54.0736 300.75 54.0359C300.488 53.7279 300.033 53.2713 299.352 52.6192L298.39 51.6674L297.389 50.7226C295.322 48.7432 293.69 46.5078 292.605 44.0913L292.128 43.0118L291.636 41.8961C290.2 38.6951 290.498 35.5194 291.549 32.6932L292.113 31.2286L292.638 29.771C292.81 29.3092 292.794 29 292.801 28.8465L292.095 28.12L291.133 27.1682C289.085 25.1157 287.556 22.805 286.545 20.3066L285.682 18.1697ZM296.381 18.5054C296.835 19.6255 297.51 20.6216 298.438 21.5519L299.4 22.5037L300.338 23.4988C303.798 26.9691 303.855 30.9092 302.673 34.0792L301.623 36.9945C300.987 38.701 301.226 39.5081 301.326 39.7327L301.818 40.8485L302.296 41.928C302.749 42.939 303.435 43.9427 304.452 44.9171L306.454 46.8067C307.312 47.6284 308.096 48.4331 308.737 49.1893C309.303 49.8578 310.075 50.8634 310.537 52.0104L310.873 52.8434C311.272 53.8327 311.421 54.9575 311.515 55.7599C311.628 56.7184 311.708 57.8985 311.771 59.2527L311.877 60.9449L311.944 62.644C312.103 66.1304 310.997 69.8485 306.773 71.2927L305.655 71.6919L304.498 72.0982C302.605 72.7454 300.65 73.3231 298.638 73.8326L297.399 74.1372L296.199 74.4348C295.803 74.535 295.471 74.6997 295.224 75.3914L294.826 76.5532L294.391 77.7221C293.462 80.346 291.712 82.5148 288.886 83.7089L287.884 84.087L288.718 86.1515C289.321 87.7124 289.649 89.4829 289.281 91.2218C288.889 93.0629 287.775 94.492 286.184 95.4063L284.373 96.4381C283.898 96.7106 283.103 97.1164 282.128 97.316C281.357 97.4716 278.33 97.8616 275.894 95.2678C274.9 94.2047 274.53 93.1118 274.393 92.4699C274.255 91.8174 274.261 91.2625 274.292 90.8935C274.354 90.1631 274.555 89.4813 274.743 88.9439L275.519 86.7791C275.854 85.8199 275.844 84.9121 275.594 84.0036L275.294 82.8527L274.956 81.7088C274.385 79.6378 274.054 77.5675 273.901 75.5228L273.822 74.4091L273.729 73.2593C273.621 71.8345 273.316 70.3842 272.877 68.9032L272.524 67.7231L272.186 66.5792C271.723 65.0221 271.133 63.433 270.384 61.8135L269.863 60.6253L269.303 59.4442C268.141 56.9274 267.586 54.3737 267.769 51.8678L267.948 49.6566C268.112 47.4163 268.681 45.2692 269.647 43.2386L270.683 41.1041C271.202 40.0092 271.369 38.9833 271.285 37.9987L271.192 36.8488L271.075 35.7422C270.911 33.8162 270.879 31.902 270.946 30.009L270.983 28.8742L271.034 27.7757C271.105 25.8012 271.351 23.8621 271.779 21.9601L271.999 20.8697L272.215 19.9744C271.442 19.1575 270.864 18.3473 270.534 17.7539C270.005 16.8017 269.546 15.7133 269.131 14.5878L268.183 12.0384C267.946 11.3952 267.719 10.6777 267.595 9.96797C267.492 9.38014 267.355 8.15711 267.866 6.96209C268.155 6.29511 268.676 5.54538 269.595 5.01174C270.536 4.46599 271.61 4.31699 272.548 4.35428C274.193 4.42187 275.526 5.11915 276.127 5.44938L276.961 5.88007L277.81 6.34699C278.348 6.63681 279.73 7.18395 282.338 7.85167L284.091 8.30868L285.882 8.75864C289.797 9.76375 293.754 12.0153 295.43 16.1512L296.381 18.5054Z" fill="#1E1E1E"/>
<path d="M277.961 223.796C279.017 209.811 289.977 199.035 303.144 199.035H376.088C388.471 199.035 399.03 208.598 401.024 221.62L447.604 525.816C450.112 542.197 438.246 557.071 422.669 557.071H280.176C265.423 557.071 253.809 543.66 254.992 527.992L277.961 223.796Z" fill="#FDFDFB"/>
<path d="M330.847 190.754L332.058 190.949L333.269 191.184C335.469 191.591 337.645 192.244 339.792 193.098L341.003 193.566L342.175 194.035C342.48 194.157 342.768 194.227 343.425 193.84L344.597 193.137L345.808 192.434L348.776 191.262C349.831 191.053 350.95 191.039 352.097 191.262C354.286 191.69 356.07 192.918 357.448 194.27L358.659 195.441L359.05 195.871L359.558 195.324L360.769 194.113C362.09 192.761 363.749 191.531 365.769 190.949C366.827 190.646 367.893 190.555 368.933 190.637L371.979 191.418L374.401 192.512C376.527 193.464 378.539 194.575 380.417 195.871L381.472 196.613L382.526 197.316C383.18 197.768 383.884 198.005 384.87 197.941L386.198 197.863L387.526 197.746C390.93 197.525 394.094 198.629 396.55 201.105L397.409 202.004L398.308 202.902C400.772 205.392 401.823 208.567 401.589 211.965L401.472 213.332L401.394 214.66C401.334 215.516 401.548 216.003 401.94 216.457L402.761 217.434L403.62 218.41C405.702 220.82 406.782 223.739 406.667 226.965L406.628 228.176L406.589 229.426C406.504 231.756 406.123 234.09 405.456 236.418L405.104 237.707L404.909 238.293C405.02 238.383 405.151 238.522 405.339 238.645L406.823 239.621L408.347 240.637C409.965 241.696 411.54 243.141 412.487 245.129C413.505 247.265 413.579 249.539 412.878 251.652L412.019 254.23C411.435 255.975 411.025 257.669 410.769 259.309L410.378 261.809C410.238 262.72 410.328 263.522 410.729 264.348L411.315 265.48L411.862 266.613C412.591 268.099 413.489 269.58 414.558 271.066L416.12 273.254C417.864 275.679 418.912 278.452 418.972 281.457V282.668L419.011 283.879V292.121C418.993 294.193 418.865 296.277 418.62 298.371L418.308 300.871C418.097 302.674 417.962 304.484 417.878 306.262L417.839 307.473L417.761 308.684C417.743 309.053 417.808 309.618 418.581 310.48L419.558 311.535L420.495 312.59C422.81 315.175 424.058 318.431 423.542 322.043L423.386 323.254L423.19 324.504C423.006 325.796 423.086 326.996 423.386 328.137L424.011 330.48C424.909 333.891 424.07 337.205 422.409 340.09L421.667 341.418L421.55 341.574L422.722 342.277L424.362 343.254C426.065 344.269 427.805 345.72 428.815 347.824C429.928 350.147 429.824 352.591 428.933 354.738L428.425 356.027L427.878 357.316C427.283 358.748 427.076 359.95 427.136 360.949L427.214 362.16L427.292 363.332C427.339 364.132 427.64 365.045 428.386 366.066L429.948 368.254C432.212 371.355 432.673 374.983 431.315 378.527L430.3 381.105C429.67 382.744 429.314 384.284 429.167 385.715L429.05 386.965L428.933 388.176C428.923 388.266 428.819 388.619 429.636 389.426L430.729 390.48L431.784 391.535C433.184 392.912 434.322 394.712 434.675 396.926C435.027 399.139 434.491 401.198 433.581 402.941L432.878 404.27L432.214 405.598C431.492 406.977 431.358 407.925 431.433 408.566L431.589 409.738L431.706 410.949C431.928 412.859 432.138 414.772 432.292 416.691L432.37 417.902L432.487 419.113C432.5 419.25 432.601 419.825 433.815 420.832L435.026 421.887L436.276 422.902C437.741 424.118 439.063 425.718 439.714 427.785C440.387 429.932 440.193 432.089 439.44 433.996L438.425 436.574C438.457 436.614 438.487 436.673 438.542 436.73L439.558 437.785L440.612 438.84C442.162 440.442 443.248 442.636 443.112 445.246C442.985 447.673 441.806 449.688 440.534 451.223L439.401 452.629L438.972 453.098L439.284 453.332L440.69 454.309C442.222 455.402 443.658 456.857 444.558 458.723C445.499 460.682 445.687 462.797 445.183 464.855L444.87 466.145L444.558 467.395C444.356 468.211 444.43 468.827 444.753 469.465L445.925 471.73C447.935 475.648 446.864 479.589 444.714 482.668L443.737 484.035L443.073 484.934L443.659 485.441L444.831 486.496C447.584 488.971 449.291 492.406 448.542 496.457L448.308 497.707L448.112 498.957C447.932 499.937 448.023 500.785 448.386 501.613L448.894 502.746L449.362 503.879C450.789 507.135 450.552 510.507 449.167 513.605L448.581 514.934L447.995 516.223C447.375 517.606 447.248 518.7 447.331 519.543L447.448 520.715L447.565 521.926C447.633 522.59 447.932 523.446 448.854 524.543L449.792 525.676L450.729 526.77C451.871 528.128 452.821 529.835 453.112 531.848C453.411 533.927 452.924 535.875 451.979 537.551L451.354 538.645L450.769 539.738C450.112 540.902 449.635 542.164 449.401 543.566L449.206 544.855L449.011 546.105C448.403 549.786 446.158 552.609 442.722 554.035L441.511 554.504L440.339 555.012C439.106 555.523 438.046 556.234 437.136 557.16L436.237 558.098L435.339 558.996C434.076 560.283 432.467 561.272 430.534 561.691C428.621 562.106 426.765 561.89 425.104 561.301L423.854 560.832L422.604 560.402C421.42 559.981 420.4 559.916 419.479 560.09L418.269 560.324L417.097 560.559C414.717 561.008 412.303 561.07 409.909 560.754L407.487 560.441C407.102 560.391 406.474 560.413 405.417 561.145L404.206 561.965L402.995 562.824C400.264 564.718 397.052 565.693 393.62 565.051L392.448 564.816L391.237 564.582C389.484 564.254 387.713 564.003 385.964 563.801L384.792 563.645L383.581 563.527C382.429 563.394 381.257 563.502 380.026 563.879L378.815 564.23L377.604 564.621C374.708 565.505 371.747 565.428 368.894 564.426L367.683 563.996L366.511 563.566C365.22 563.113 363.982 562.929 362.8 562.98L361.589 563.059L360.378 563.098C358.046 563.204 355.723 563.005 353.425 562.473L352.214 562.199L351.042 561.887C348.923 561.396 346.8 560.757 344.714 559.934L343.503 559.465L342.331 558.996L342.253 558.957C342.228 558.966 342.188 559.01 342.136 559.035C342.024 559.091 341.848 559.176 341.628 559.348L340.417 560.285L339.245 561.223C337.81 562.344 336.088 563.22 334.128 563.527C332.122 563.84 330.172 563.527 328.425 562.707L327.214 562.121L326.042 561.574L326.003 561.535C325.919 561.576 325.805 561.699 325.612 561.848L324.401 562.746L323.19 563.684C321.495 564.987 319.287 565.911 316.745 565.598C314.307 565.293 312.365 563.941 310.964 562.512L309.792 561.301L308.581 560.09C307.95 559.446 307.477 559.107 307.175 558.957C306.904 558.825 306.757 558.839 306.745 558.84L305.573 558.879L304.362 558.918C304.185 558.925 303.443 559.054 302.097 560.402L300.886 561.613L299.675 562.785C298.313 564.149 296.571 565.403 294.401 565.871C292.115 566.362 289.93 565.875 288.073 564.816L286.862 564.113L285.69 563.449C284.361 562.691 283.175 562.326 282.136 562.238L280.925 562.16L279.753 562.043C276.447 561.764 273.656 560.202 271.589 557.707L270.769 556.73L269.948 555.715C268.949 554.509 268.102 553.819 267.448 553.449L266.589 552.98L265.729 552.473C264.961 552.042 263.664 551.535 261.667 551.066L260.222 550.754L258.776 550.402C255.119 549.545 252.072 547.242 250.925 543.293L250.573 542.043L250.222 540.832C249.659 538.885 249.101 536.904 248.581 534.895L248.269 533.605L247.917 532.355C246.967 528.682 247.928 525.198 250.183 522.355L251.081 521.223L252.019 520.09C252.117 519.965 252.149 519.865 252.175 519.816L252.136 519.777L251.511 518.527L250.925 517.277C249.746 514.821 249.047 512.259 248.933 509.621L248.854 508.41L248.815 507.199C248.673 503.864 249.913 500.875 251.94 498.371L252.878 497.238L253.776 496.105C254.69 494.979 254.954 494.131 254.987 493.527L255.026 492.316L255.104 491.145C255.141 490.481 254.975 489.545 254.206 488.254L253.464 486.965L252.683 485.715C250.969 482.842 250.231 479.546 251.159 476.145L251.472 474.973L251.823 473.801C252.244 472.258 252.516 470.7 252.644 469.152L252.722 467.941L252.839 466.77C252.991 464.916 253.124 463.037 253.269 461.184L253.347 460.012L253.464 458.801C253.698 455.81 254.886 453.097 256.706 450.715L257.604 449.582L258.308 448.645L257.448 447.395L256.628 446.105C255.566 444.533 254.751 442.654 254.714 440.52C254.677 438.344 255.439 436.388 256.589 434.777L258.229 432.512C259.092 431.303 259.448 430.243 259.558 429.348L259.714 428.176L259.87 426.965C260.151 424.676 260.726 422.435 261.589 420.246L262.058 419.074L262.487 417.902C262.819 417.062 262.903 416.263 262.683 415.363L262.37 414.113L262.058 412.902C261.736 411.605 261.117 410.159 260.104 408.566L259.323 407.316L258.503 406.027C257.362 404.229 256.676 401.974 257.175 399.504C257.655 397.138 259.068 395.335 260.573 394.035L261.862 392.941L263.151 391.809C263.542 391.469 263.689 391.197 263.776 391.066L263.581 390.051L263.308 388.84C262.834 386.768 262.459 384.697 262.214 382.629L262.097 381.418L261.94 380.207C261.723 378.365 261.468 376.507 261.198 374.66L261.042 373.449L260.847 372.238C260.459 369.592 260.66 366.936 261.472 364.387L262.253 362.043C262.766 360.431 263.139 358.813 263.425 357.199L263.659 355.988L263.854 354.816C263.938 354.346 263.922 353.618 263.269 352.473L262.526 351.184L261.823 349.934C260.826 348.194 260.253 346.12 260.573 343.879C260.891 341.68 261.978 339.857 263.308 338.449L264.362 337.355L265.417 336.223C266.259 335.332 266.251 334.912 266.237 334.816L266.081 333.566L265.925 332.355C265.697 330.471 265.487 328.576 265.261 326.691L264.948 324.27L264.597 318.02V316.809L264.636 315.598C264.656 312.364 265.931 309.493 267.917 307.043L268.815 305.91L269.479 305.051L268.698 303.918L267.8 302.629C266.716 301.103 265.87 299.287 265.729 297.199C265.588 295.046 266.204 293.054 267.292 291.379L268.034 290.246L268.776 289.074C268.749 289.012 268.728 288.913 268.659 288.801L267.878 287.551L267.097 286.262C265.487 283.627 264.542 280.701 264.753 277.59L264.831 276.379L264.909 275.207C265.104 272.333 266.17 269.676 267.8 267.277L268.581 266.105L269.323 264.973C269.414 264.839 269.471 264.761 269.479 264.738C269.464 264.687 269.39 264.594 269.323 264.465L268.073 261.965C267.236 260.338 266.714 258.499 266.823 256.535C266.935 254.579 267.633 252.817 268.659 251.301L269.44 250.129L270.222 248.996C271.018 247.825 271.327 246.816 271.394 245.949L271.511 244.777L271.589 243.566C271.763 241.31 272.221 239.072 272.917 236.887L273.269 235.715L273.659 234.543C274.289 232.564 275.014 230.596 275.847 228.645L276.862 226.301V226.184C276.846 226.072 276.773 225.72 276.394 225.129L275.495 223.762L274.636 222.434C273.627 220.87 272.625 218.55 273.19 215.91C273.787 213.13 275.806 211.471 277.565 210.559L278.854 209.895L280.144 209.191C280.514 209 280.653 208.856 280.69 208.801C280.733 208.735 280.844 208.556 280.886 208.137L281.003 206.652L281.159 205.207C281.343 203.373 281.95 201.389 283.347 199.738C284.786 198.041 286.687 197.124 288.62 196.77L291.198 196.301C292.51 196.061 293.802 195.544 295.065 194.699L297.409 193.137C298.334 192.518 299.732 191.646 301.237 191.34C302.008 191.185 303.743 190.987 305.456 192.082C307.222 193.213 307.733 194.941 307.878 196.066C308.059 196.196 308.306 196.327 308.581 196.496L309.753 197.238L310.573 197.785L310.612 197.746L311.823 196.652L312.995 195.598C315.318 193.517 317.964 191.915 320.925 191.301L323.347 190.832C325.838 190.318 328.347 190.292 330.847 190.754ZM276.823 257.082C276.832 257.119 276.856 257.23 276.94 257.395L277.604 258.645L278.229 259.895C279.066 261.521 279.55 263.361 279.44 265.324C279.33 267.294 278.64 269.074 277.604 270.598L276.042 272.863C275.254 274.023 274.967 275.023 274.909 275.871L274.831 277.082L274.753 278.254C274.712 278.862 274.825 279.78 275.612 281.066L277.175 283.566C278.137 285.138 278.789 286.978 278.815 288.996C278.839 291.048 278.216 292.939 277.175 294.543L276.433 295.676L275.808 296.652C275.84 296.707 275.873 296.775 275.925 296.848L276.823 298.137L277.722 299.387C278.851 300.976 279.727 302.951 279.714 305.207C279.699 307.505 278.798 309.498 277.526 311.066L275.651 313.332C274.787 314.401 274.639 315.171 274.636 315.676L274.597 316.848V318.059C274.586 319.711 274.708 321.38 274.909 323.059L275.026 324.309L275.183 325.52C275.409 327.403 275.658 329.3 275.886 331.184L276.003 332.395L276.159 333.605C276.608 337.342 275.061 340.58 272.683 343.098L271.628 344.191L270.612 345.207L271.198 346.223L271.94 347.473C273.521 350.228 274.264 353.316 273.698 356.535L273.503 357.746L273.308 358.918C272.942 360.989 272.432 363.055 271.784 365.09L271.003 367.434C270.652 368.539 270.563 369.655 270.729 370.793L270.925 372.004L271.081 373.215C271.364 375.151 271.634 377.102 271.862 379.035L272.175 381.457C272.377 383.159 272.638 384.883 273.034 386.613L273.347 387.824L273.62 389.074C274.601 393.396 272.5 396.944 269.675 399.387L268.386 400.52L267.37 401.34L267.761 401.926L268.542 403.215C270.026 405.551 271.16 407.967 271.784 410.48L272.058 411.73L272.37 412.941C273.091 415.851 272.923 418.784 271.823 421.574L270.886 423.918C270.321 425.352 269.965 426.768 269.792 428.176L269.636 429.387L269.479 430.559C269.136 433.372 268.026 435.991 266.354 438.332L265.534 439.465L264.831 440.402L265.769 441.809L266.628 443.059C267.701 444.649 268.475 446.583 268.464 448.762C268.451 450.983 267.602 452.925 266.394 454.504L264.675 456.77C263.792 457.923 263.481 458.857 263.425 459.582L263.347 460.793L263.229 461.965C263.084 463.833 262.954 465.722 262.8 467.59L262.683 468.762L262.604 469.973C262.426 472.143 262.051 474.295 261.472 476.418L261.12 477.59L260.808 478.762C260.736 479.024 260.652 479.552 261.276 480.598L262.019 481.848L262.8 483.098C264.367 485.721 265.273 488.629 265.104 491.691L265.026 492.902L264.948 494.074C264.776 497.199 263.496 499.993 261.55 502.395L260.651 503.527L259.714 504.66C258.885 505.683 258.798 506.352 258.815 506.77L258.894 509.191C258.942 510.295 259.272 511.53 259.948 512.941L261.12 515.441C261.94 517.148 262.355 519.082 262.097 521.105C261.841 523.11 260.982 524.849 259.831 526.301L258.034 528.566C257.475 529.272 257.536 529.589 257.604 529.855L257.917 531.105L258.269 532.395C258.765 534.314 259.296 536.205 259.831 538.059L260.183 539.27L260.495 540.441C260.556 540.477 260.703 540.595 261.042 540.676L262.487 541.027L263.933 541.34C266.425 541.924 268.722 542.702 270.612 543.762L271.472 544.23L272.331 544.738C274.334 545.864 276.089 547.472 277.644 549.348L278.464 550.324L279.284 551.34C279.773 551.928 280.157 552.046 280.573 552.082L281.784 552.199L282.995 552.277C285.675 552.506 288.215 553.411 290.612 554.777L291.823 555.441L292.448 555.793C292.485 555.759 292.563 555.757 292.604 555.715L293.815 554.543L295.026 553.332C297.41 550.946 300.382 549.109 303.933 548.957L305.144 548.879L306.354 548.84C310.147 548.685 313.308 550.591 315.729 553.059L316.94 554.309L317.8 555.207L318.308 554.855L319.519 553.918C320.955 552.814 322.649 551.948 324.597 551.652C326.591 551.353 328.524 551.699 330.261 552.512L331.472 553.059L332.604 553.605C332.684 553.57 332.851 553.506 333.073 553.332L334.284 552.395L335.456 551.457C338.421 549.14 342.164 548.183 346.003 549.699L347.175 550.168L348.386 550.637C350.029 551.286 351.658 551.787 353.269 552.16L355.69 552.707C357.117 553.037 358.516 553.16 359.909 553.098L362.331 553.02C364.869 552.904 367.362 553.3 369.792 554.152L371.003 554.543L372.214 554.973C373.083 555.278 373.849 555.302 374.675 555.051L375.886 554.66L377.097 554.309C379.59 553.545 382.142 553.309 384.714 553.605L385.925 553.723L387.136 553.879C389.116 554.108 391.097 554.407 393.073 554.777L394.284 554.973L395.456 555.207C395.752 555.262 396.3 555.307 397.292 554.621L398.503 553.762L399.714 552.941C402.379 551.092 405.471 550.076 408.815 550.52L410.026 550.676L411.198 550.832C412.532 551.009 413.874 550.969 415.222 550.715L416.433 550.48L417.604 550.246C420.417 549.715 423.258 550.025 425.964 550.988L427.214 551.418L428.347 551.809L429.987 550.168C431.852 548.267 434.045 546.815 436.511 545.793L437.683 545.285L438.894 544.777C439.014 544.727 439.067 544.676 439.089 544.66V544.699C439.1 544.668 439.111 544.604 439.128 544.504L439.323 543.215L439.558 541.965C439.976 539.435 440.808 537.031 442.058 534.816L442.644 533.723L442.956 533.098L442.136 532.121L441.198 530.988C439.238 528.658 437.906 525.952 437.604 522.902L437.487 521.691L437.37 520.52C437.086 517.641 437.656 514.793 438.854 512.121L440.026 509.543C440.447 508.604 440.341 508.18 440.222 507.902L439.714 506.77L439.206 505.598C438.026 502.895 437.733 500.018 438.269 497.121L438.737 494.621C438.728 494.597 438.626 494.344 438.151 493.918L436.979 492.902L435.847 491.848C434.287 490.448 432.939 488.484 432.722 485.949C432.512 483.474 433.438 481.314 434.597 479.66L435.573 478.293L436.511 476.965C436.804 476.546 436.857 476.236 436.901 476.105L436.433 475.168L435.886 474.035C434.425 471.186 434.072 468.103 434.831 465.012L435.144 463.723L435.339 462.863C435.231 462.761 435.083 462.625 434.87 462.473L433.464 461.457L432.058 460.48C430.32 459.239 428.529 457.23 428.229 454.348C427.94 451.544 429.211 449.228 430.534 447.629L431.706 446.223L432.644 445.012L432.37 444.738L431.354 443.684C430.062 442.346 429.019 440.682 428.581 438.684C428.138 436.66 428.389 434.681 429.089 432.902L429.597 431.613L429.987 430.676L429.909 430.598L428.659 429.582L427.409 428.527C424.814 426.373 422.816 423.503 422.526 419.895L422.409 418.723L422.331 417.512C422.186 415.711 421.992 413.912 421.784 412.121L421.667 410.91L421.511 409.699C421.159 406.636 421.922 403.671 423.347 400.949L424.05 399.621L424.597 398.527L422.644 396.574C420.15 394.121 418.588 390.906 418.972 387.16L419.089 385.949L419.206 384.699C419.452 382.295 420.053 379.884 420.964 377.512L421.979 374.934C422.042 374.766 422.048 374.648 422.058 374.582V374.426C422.039 374.381 421.992 374.278 421.901 374.152L421.081 373.059L420.3 371.965C418.567 369.593 417.508 366.894 417.331 363.957L417.175 361.535C417.012 358.793 417.54 356.089 418.62 353.488L419.167 352.199L419.284 351.848H419.245L417.604 350.871L416.003 349.895C414.265 348.86 412.368 347.295 411.472 344.895C410.491 342.262 411.08 339.716 412.214 337.746L413.776 335.09C414.495 333.839 414.381 333.237 414.323 333.02L414.011 331.848L413.698 330.715C413.042 328.228 412.941 325.664 413.308 323.098L413.464 321.848L413.659 320.598C413.693 320.35 413.709 319.983 413.073 319.27L412.097 318.215L411.159 317.121C408.957 314.662 407.599 311.65 407.761 308.215L407.839 307.004L407.878 305.793C407.973 303.777 408.148 301.732 408.386 299.699L408.698 297.199C408.902 295.46 408.996 293.741 409.011 292.043V290.832L409.05 289.621C409.065 287.776 409.046 285.911 409.011 284.074L408.972 282.863V281.652C408.956 280.899 408.693 280.084 407.995 279.113L406.433 276.926C405.06 275.016 403.87 273.048 402.878 271.027L401.784 268.762C400.47 266.082 400.034 263.194 400.495 260.246L400.886 257.746C401.234 255.523 401.781 253.296 402.526 251.066L402.956 249.777L403.112 249.191C403.04 249.138 402.973 249.058 402.878 248.996L401.354 248.02L399.87 247.043C398.258 245.991 396.665 244.55 395.69 242.629C394.656 240.582 394.499 238.352 395.104 236.223L395.495 234.934L395.847 233.684C396.31 232.067 396.536 230.497 396.589 229.035L396.628 227.824L396.706 226.613C396.726 226.046 396.569 225.542 396.042 224.934L395.222 223.996L394.362 223.02C392.141 220.452 391.199 217.296 391.433 213.957L391.511 212.629L391.628 211.262C391.679 210.487 391.467 210.205 391.198 209.934L390.339 209.035L389.44 208.137C389.158 207.854 388.884 207.704 388.19 207.746L385.534 207.902C382.404 208.107 379.419 207.352 376.823 205.559L375.769 204.816L374.753 204.113C373.389 203.171 371.896 202.327 370.3 201.613L369.089 201.105L368.308 200.715L366.706 202.316L365.534 203.566C364.081 205.053 361.96 206.477 359.245 206.535C356.507 206.592 354.34 205.233 352.839 203.762L351.628 202.59L350.456 201.379L350.378 201.301L349.675 201.73L348.464 202.473C345.394 204.274 341.921 204.689 338.503 203.332L336.081 202.395C334.503 201.768 332.958 201.309 331.433 201.027L330.222 200.793L329.05 200.559C327.829 200.333 326.606 200.346 325.378 200.598L324.167 200.871L322.956 201.105C322.184 201.266 321.084 201.757 319.675 203.02L318.464 204.113L317.292 205.168C315.858 206.452 314.017 207.556 311.823 207.863C309.562 208.176 307.479 207.572 305.729 206.496L303.308 205.012C302.36 204.427 301.457 203.73 300.651 202.98V203.02C298.317 204.583 295.761 205.643 293.034 206.145L291.706 206.379L291.081 206.457L290.964 207.668L290.808 209.113C290.412 213.067 288.295 216.261 284.753 218.098L284.011 218.449L284.792 219.699C286.773 222.773 287.64 226.503 286.042 230.246L285.534 231.418L285.065 232.551C284.352 234.222 283.723 235.917 283.19 237.59L282.8 238.762L282.448 239.934C281.98 241.404 281.663 242.882 281.55 244.348L281.472 245.52L281.394 246.73C281.173 249.584 280.126 252.233 278.503 254.621L276.94 256.887L276.823 257.082Z" fill="#1E1E1E"/>
<path d="M279.167 89.0162C279.167 71.6323 299.595 57.1947 325.995 55.921L337.364 55.3724C339.829 55.2535 342.304 55.2535 344.769 55.3724L356.138 55.921C382.537 57.1947 402.965 71.6323 402.965 89.0162V200.378C402.965 217.84 382.36 232.315 355.831 233.488L333.092 234.494C303.915 235.784 279.167 220.589 279.167 201.384V89.0162Z" fill="#FDFDFB"/>
<path d="M360.183 48.2129L362.604 48.916C365.256 49.6655 367.672 50.9956 369.792 52.8223L370.808 53.7207L371.862 54.6191C372.322 55.0115 372.664 55.0815 373.269 54.9707L374.597 54.7363L375.964 54.502C378.593 54.0213 381.233 53.9453 383.854 54.3457L385.183 54.5801L386.511 54.7754C390.329 55.3626 393.16 57.664 394.792 61.0254L395.417 62.3145L396.081 63.6035C397.002 65.5024 397.9 67.1674 398.776 68.6035L399.401 69.6582L400.026 70.6738C400.474 71.4028 401.28 72.2726 402.761 73.1348L404.05 73.877L405.378 74.6191C408.406 76.3827 410.675 79.1114 411.315 82.7832L411.55 83.9941L411.745 85.2441C411.949 86.4141 412.164 88.2295 411.55 89.9707C411.214 90.9158 410.532 91.9181 409.44 92.7441C410.712 96.6477 409.472 100.253 407.097 103.057L406.081 104.268L405.065 105.439C404.905 105.629 404.808 105.775 404.753 105.869L405.261 106.963L405.808 108.174C406.581 109.883 407.474 111.601 408.464 113.33L409.128 114.541L409.831 115.752C410.776 117.411 411.312 119.318 411.159 121.377C411.003 123.424 410.182 125.259 409.089 126.768L408.229 127.939L407.37 129.15H407.331L408.112 130.244L408.894 131.455C410.518 133.907 411.567 136.603 411.745 139.502L411.901 141.924C412.055 144.477 411.69 147.015 410.847 149.463L410.417 150.635L410.026 151.846C409.611 153.053 409.477 154.186 409.597 155.283L409.714 156.494L409.87 157.666C410.044 159.267 410.332 160.887 410.769 162.51L411.081 163.721L411.433 164.932C412.633 169.424 410.249 173.095 407.448 175.557L404.714 177.979C403.133 179.37 403.315 179.914 403.308 179.658L403.386 182.08C403.43 183.543 403.648 185.031 404.05 186.533L404.362 187.744L404.714 188.916C405.35 191.293 405.586 193.72 405.417 196.143L405.339 197.314L405.261 198.525C405.165 199.92 405.253 201.342 405.534 202.783L405.769 203.955L405.964 205.166C406.598 208.414 405.898 211.552 403.854 214.189L403.112 215.166L402.409 216.104C400.692 218.318 398.463 219.949 395.847 220.947L394.675 221.377L393.776 221.689C393.691 221.863 393.533 222.264 393.425 223.018L393.19 224.814L392.917 226.611C392.376 230.411 390.515 234.262 386.237 235.83L385.026 236.26L383.815 236.729C380.597 237.908 377.272 237.667 374.128 236.494L372.683 235.947L371.198 235.4C369.248 234.672 367.627 234.283 366.315 234.15L365.144 234.033L363.933 233.916C363.725 233.897 363.263 233.897 362.37 234.658L361.237 235.596L360.144 236.533C358.064 238.313 355.81 239.723 353.386 240.674L351.042 241.611C348.116 242.758 345.04 242.855 342.058 241.885L340.847 241.455L339.597 241.064C337.946 240.526 336.313 240.146 334.714 239.893L332.292 239.502C330.259 239.179 328.248 238.767 326.276 238.252L323.933 237.627C321.827 237.075 319.796 236.329 317.839 235.4L315.651 234.385C315.095 234.123 314.425 233.996 313.425 234.229L312.136 234.541L310.886 234.814C308.383 235.395 305.836 235.569 303.308 235.322L302.058 235.205L300.769 235.088C297.977 234.813 295.38 233.865 293.073 232.275L291.042 230.869C289.429 229.758 287.787 228.619 286.159 227.471L285.144 226.729L284.089 226.025C281.213 223.997 279.602 221.027 279.206 217.627L278.894 214.893C278.814 214.2 278.522 213.564 277.644 212.861L276.511 211.924L275.339 210.986C273.728 209.697 272.193 207.708 272.058 204.971C271.933 202.37 273.132 200.243 274.362 198.76L275.417 197.471L276.472 196.221C277.731 194.704 278.162 193.593 278.269 192.9L278.464 191.689L278.62 190.479C278.617 190.462 278.607 190.425 278.581 190.361C278.498 190.163 278.277 189.717 277.683 189.111L275.3 186.729C273.982 185.384 272.846 183.692 272.331 181.65C271.792 179.503 272.052 177.374 272.956 175.479L274.128 173.057C274.842 171.567 275.292 170.136 275.534 168.76L275.769 167.549L275.964 166.377C276.321 164.348 276.77 162.302 277.331 160.283L277.683 159.072L277.995 157.9C278.033 157.763 278.06 157.659 278.034 157.549C278.001 157.41 277.886 157.099 277.526 156.611L275.729 154.189C274.622 152.691 273.792 150.891 273.62 148.838C273.446 146.751 273.987 144.812 274.948 143.135L275.651 141.924L276.315 140.752C276.533 140.372 276.583 140.129 276.589 140.049C276.592 139.975 276.575 139.821 276.472 139.58L275.964 138.408L275.456 137.197C274.142 134.135 274.072 130.893 275.3 127.783L275.769 126.572L276.159 125.674C276.082 125.555 275.933 125.376 275.69 125.127L273.347 122.705C271.932 121.256 270.63 119.276 270.456 116.768C270.279 114.192 271.33 112.014 272.683 110.4L273.698 109.229L274.714 108.018C275.772 106.754 275.949 105.924 275.964 105.479L276.042 103.057C276.084 101.655 275.958 100.237 275.612 98.7988L275.3 97.5879L275.026 96.416C274.367 93.6779 274.454 90.8901 275.339 88.2129L275.69 87.0801L276.081 85.9473C276.489 84.7085 276.695 83.3631 276.706 81.9238L276.745 80.7129V79.4629C276.769 76.3974 277.763 73.557 279.714 71.1816L281.276 69.3066C282.228 68.1477 283.137 66.7408 283.972 65.0879L285.222 62.5879C286.619 59.8249 288.681 57.6035 291.394 56.1035L292.526 55.4785L293.698 54.8145C295.757 53.6793 297.92 52.781 300.144 52.0801L302.565 51.2988C305.454 50.3881 308.457 50.3699 311.394 51.1426L312.722 51.5332L314.089 51.8848C316.099 52.4136 317.999 52.8427 319.753 53.1738L320.964 53.3691L322.175 53.6035C323.791 53.9081 325.382 54.0824 326.94 54.1113L328.112 54.1504H329.323C330.984 54.1808 332.638 54.1415 334.284 53.9941L335.495 53.877L336.667 53.7598C338.303 53.6125 339.941 53.3601 341.589 53.0176L342.8 52.7832L343.972 52.5488C345.227 52.2872 346.642 51.7419 348.19 50.8691L349.401 50.2051L350.651 49.502C353.578 47.8533 356.849 47.2704 360.183 48.2129ZM355.534 58.2129L354.323 58.916L353.073 59.5801C350.78 60.872 348.423 61.8105 346.003 62.3145L344.831 62.5879L343.659 62.8223C341.638 63.2432 339.596 63.5379 337.565 63.7207L336.394 63.8379L335.183 63.9551C333.172 64.1353 331.153 64.1879 329.128 64.1504H327.917L326.745 64.1113C324.604 64.0715 322.449 63.8531 320.3 63.4473L317.878 62.9785C315.866 62.5984 313.754 62.1133 311.55 61.5332L310.183 61.1816L308.854 60.8301C307.573 60.493 306.501 60.5378 305.573 60.8301L303.151 61.6113C301.564 62.1116 299.994 62.7804 298.503 63.6035L296.237 64.8535C295.402 65.3148 294.686 66.0141 294.128 67.1191L293.503 68.3691L292.878 69.5801C291.757 71.7994 290.484 73.8401 289.011 75.6348L288.229 76.5723L287.448 77.5488C286.976 78.1263 286.751 78.7303 286.745 79.541V80.752L286.706 82.002C286.687 84.4371 286.326 86.8356 285.573 89.1113L285.183 90.2441L284.831 91.377C284.557 92.2129 284.515 93.0828 284.753 94.0723L285.026 95.2441L285.3 96.4551C285.85 98.7393 286.112 101.048 286.042 103.369L285.964 105.791C285.86 109.071 284.428 111.965 282.37 114.424L281.354 115.635L280.886 116.143L281.667 116.924L282.839 118.135C284.133 119.461 285.28 121.077 285.847 123.018C286.438 125.052 286.296 127.144 285.534 129.072L285.065 130.244L284.597 131.455C284.351 132.078 284.348 132.581 284.636 133.252L285.651 135.674C287.107 139.078 286.783 142.581 284.987 145.713L284.323 146.924L283.62 148.018C283.652 148.074 283.704 148.154 283.776 148.252L284.675 149.463L285.534 150.635C287.63 153.462 288.656 156.906 287.644 160.557L287.331 161.768L286.979 162.979C286.504 164.689 286.107 166.395 285.808 168.096L285.612 169.307L285.378 170.479C284.963 172.833 284.225 175.153 283.151 177.393L282.565 178.604L282.136 179.385C282.207 179.477 282.311 179.597 282.448 179.736L283.62 180.908L284.792 182.119C287.27 184.644 289.095 188.001 288.503 191.963L288.347 193.174L288.151 194.385C287.693 197.419 286.187 200.156 284.167 202.588L283.112 203.877L282.839 204.15L283.894 205.049C286.631 207.24 288.402 210.179 288.815 213.721L289.011 215.088L289.167 216.455C289.263 217.291 289.523 217.577 289.87 217.822L290.886 218.564L291.94 219.307C293.536 220.432 295.127 221.539 296.706 222.627L298.737 224.033C299.62 224.642 300.605 225.014 301.745 225.127L303.034 225.244L304.284 225.361C305.696 225.499 307.141 225.431 308.62 225.088L309.909 224.775L311.159 224.502C314.13 223.813 317.149 223.998 319.948 225.322L321.042 225.869L322.097 226.377C323.489 227.038 324.961 227.544 326.472 227.939L328.815 228.564C330.464 228.995 332.143 229.347 333.854 229.619L336.276 230.01C338.427 230.351 340.587 230.875 342.722 231.572L345.144 232.354C345.947 232.616 346.63 232.603 347.37 232.314L348.542 231.846L349.753 231.377C350.996 230.888 352.31 230.11 353.659 228.955L355.847 227.08C358.359 224.931 361.456 223.604 364.948 223.955L366.159 224.072L367.331 224.189C369.705 224.429 372.178 225.077 374.714 226.025L377.604 227.119C378.953 227.624 379.801 227.526 380.378 227.314L381.589 226.885L382.644 226.455C382.723 226.303 382.928 225.948 383.034 225.205L383.269 223.408L383.542 221.611C384.062 217.969 385.773 214.074 389.987 212.471L391.12 212.041L392.253 211.572C393.198 211.213 393.915 210.696 394.479 209.971L395.222 209.033L395.964 208.057C396.195 207.755 396.252 207.553 396.159 207.08L395.925 205.908L395.69 204.697C395.245 202.416 395.102 200.116 395.261 197.822L395.339 196.611L395.417 195.439C395.506 194.167 395.389 192.85 395.026 191.494L394.714 190.322L394.401 189.111C393.806 186.884 393.453 184.62 393.386 182.354L393.347 181.182L393.308 179.971C393.189 175.988 395.459 172.814 398.112 170.479L400.847 168.057C401.308 167.651 401.511 167.329 401.628 167.158L401.433 166.299L401.12 165.127C400.553 163.019 400.141 160.889 399.909 158.76L399.792 157.549L399.636 156.338C399.353 153.711 399.708 151.121 400.573 148.604L400.964 147.393L401.394 146.182C401.832 144.904 401.973 143.682 401.901 142.51L401.823 141.338L401.784 140.127C401.734 139.296 401.421 138.242 400.573 136.963L399.753 135.791L398.972 134.58C397.9 132.963 397.19 131.031 397.253 128.877C397.32 126.731 398.159 124.843 399.284 123.291L401.003 120.869C401.071 120.775 401.09 120.689 401.12 120.635L400.456 119.502L399.753 118.291C398.613 116.298 397.578 114.289 396.667 112.275L396.159 111.064L395.612 109.893C394.796 108.087 394.507 106.068 394.909 104.033C395.301 102.069 396.266 100.391 397.448 98.9941L399.479 96.5723C399.871 96.109 399.97 95.8496 399.987 95.791L399.597 94.6191L399.167 93.4082C398.811 92.3533 398.309 90.5424 398.698 88.6816C398.931 87.5777 399.54 86.25 400.847 85.2441C401.058 85.0821 401.296 84.9769 401.511 84.8535L401.472 84.502C401.437 84.305 401.355 83.8849 400.339 83.291L399.05 82.5098L397.722 81.7676C395.158 80.2739 392.974 78.3307 391.472 75.8691L390.222 73.8379C389.149 72.0803 388.093 70.1122 387.058 67.9785L385.808 65.4004C385.601 64.974 385.424 64.8104 385.378 64.7754C385.335 64.7449 385.232 64.6956 384.987 64.6582L383.659 64.4629L382.331 64.2285C380.837 64.0013 379.317 64.0225 377.761 64.3066L376.394 64.5801L375.065 64.8145C371.489 65.47 368.097 64.565 365.339 62.1973L363.229 60.4004C362.121 59.4465 361.002 58.8453 359.87 58.5254L357.448 57.8223C357.001 57.698 356.441 57.7017 355.534 58.2129Z" fill="#1E1E1E"/>
<path d="M343.969 158.562C354.464 158.562 362.023 145.484 360.931 140.417C359.84 135.35 327.41 134.743 325.84 140.417C324.271 146.09 333.473 158.563 343.969 158.562Z" fill="#1E1E1E"/>
<path d="M341.407 155.203C340.05 154.506 338.602 153.881 337.071 153.484L335.743 153.133L335.313 153.055L335.47 151.727L335.626 150.047C335.975 146.394 335.063 142.851 332.384 140.086L332.501 140.008C333.295 139.507 333.701 139.562 334.103 139.695L335.392 140.125L336.642 140.555C339.053 141.355 341.508 141.784 343.946 141.805H346.329C348.696 141.825 351.114 141.513 353.556 140.867L354.884 140.516L355.235 140.438L355.665 141.297L356.017 142.117L355.821 142.234L354.688 142.977C351.813 144.845 349.936 147.591 349.142 150.906L348.829 152.273L348.556 153.25L347.931 153.289L346.642 153.367C345.34 153.458 343.651 153.715 342.149 154.617C341.886 154.777 341.648 155.009 341.407 155.203ZM338.321 165.047L339.103 165.672L340.743 166.766C341.313 167.05 342.576 167.578 344.142 167.391C346.126 167.148 347.584 165.879 348.321 164.422C348.529 164.009 348.616 163.591 348.712 163.211L349.923 163.172C351.811 163.039 353.745 162.38 355.353 160.945C356.147 160.235 356.764 159.419 357.228 158.562L358.204 155.945L358.556 154.578L358.868 153.25C359.083 152.353 359.463 151.804 360.118 151.375L361.29 150.633L362.423 149.891C364.135 148.775 365.629 147.066 366.173 144.695C366.69 142.436 366.16 140.308 365.392 138.602L364.767 137.195L364.142 135.75C363.365 134.025 362.083 132.248 360.04 131.141C357.908 129.987 355.645 129.955 353.673 130.477L351.017 131.18C349.304 131.633 347.759 131.816 346.407 131.805H344.024C342.747 131.794 341.341 131.57 339.806 131.062L338.517 130.633L337.267 130.203C333.72 129.026 330.204 129.637 327.149 131.57L324.649 133.133C323.238 134.028 321.194 135.758 320.782 138.602C320.354 141.581 321.992 143.817 323.243 145.047L324.22 145.984L325.196 146.961C325.422 147.183 325.805 147.651 325.665 149.109L325.509 150.75L325.353 152.43C325.169 154.347 325.334 156.588 326.524 158.602C327.79 160.738 329.806 161.933 331.876 162.469L333.204 162.82L334.571 163.172C336.278 163.614 337.166 164.129 337.579 164.461L338.321 165.047Z" fill="#1E1E1E"/>
<path d="M352.036 175.461C351.941 177.718 350.454 179.205 349.106 179.836C348.09 180.311 347.177 180.305 346.88 180.305H346.333L346.021 180.266C345.955 180.268 345.891 180.305 345.825 180.305C343.694 180.305 341.896 178.979 341.177 177.102C339.726 175.973 338.462 174.184 338.56 171.75C338.653 169.571 339.828 167.882 340.669 166.867L341.411 165.93L342.036 165.188C342.051 164.943 342.028 164.351 341.685 163.312L341.06 161.477L340.825 160.695V159.797C340.825 157.035 343.064 154.797 345.825 154.797C348.06 154.797 349.873 156.289 350.513 158.312H350.591L351.177 160.148C352.309 163.565 352.669 167.758 349.966 171.164C350.111 171.287 350.303 171.385 350.435 171.516C350.603 171.684 350.897 171.99 351.177 172.414C351.374 172.715 352.103 173.848 352.036 175.461Z" fill="#1E1E1E"/>
<path d="M331.261 194.446C329.403 195.336 327.285 195.05 325.769 194.263C324.637 193.671 323.994 192.91 323.794 192.651L323.46 192.218L323.303 191.953C323.261 191.903 323.19 191.868 323.149 191.817C321.803 190.073 321.981 187.951 323.322 186.498C323.474 184.737 324.395 182.952 326.544 181.916C328.456 180.996 330.62 181.038 332.111 181.189L333.428 181.319L334.803 181.462C334.616 181.446 334.619 181.494 334.917 181.358C335.285 181.188 335.925 180.792 336.749 179.952L338.152 178.556L338.63 178.041L339.389 177.639C341.829 176.347 345.176 177.07 346.864 179.256C348.258 181.059 348.018 183.244 346.543 184.697L346.567 184.727L345.189 186.155C342.647 188.743 339.024 191.052 334.3 190.572L333.857 190.502C333.823 190.828 333.819 191.167 333.737 191.48C333.681 191.691 333.562 192.06 333.338 192.475C333.173 192.779 332.617 193.793 331.261 194.446Z" fill="#1E1E1E"/>
<path d="M365.383 181.147C367.324 182.458 367.479 184.411 367.115 185.674C366.835 186.642 366.273 187.311 366.085 187.522L365.722 187.93L365.48 188.143C365.439 188.193 365.427 188.26 365.384 188.309C363.989 189.874 361.68 190.549 359.624 190.149C357.749 190.642 355.356 190.687 353.316 189.312C351.501 188.086 350.884 186.31 350.613 185.183L350.366 184.131L350.171 183.426C349.972 183.31 349.55 183.032 348.656 182.815L346.74 182.365L345.891 182.162L345.091 181.673C342.735 180.233 342.315 177.394 344.152 175.333C345.631 173.674 348.094 173.087 350.238 173.647L350.264 173.618L352.179 174.068C355.679 174.921 359.327 176.746 360.477 180.355C360.585 180.332 360.692 180.3 360.799 180.282C361.048 180.24 361.546 180.183 362.119 180.188C362.529 180.192 364.023 180.232 365.383 181.147Z" fill="#1E1E1E"/>
<ellipse cx="375.173" cy="119.23" rx="5.05299" ry="4.1843" fill="#1E1E1E"/>
<path d="M372.19 110.319C374.977 109.657 377.02 111.325 377.581 111.804L378.089 112.233L378.519 112.585L379.222 112.624L379.925 112.702C380.495 112.741 381.74 112.816 382.894 113.366C383.45 113.632 384.94 114.468 385.628 116.374C386.414 118.556 385.531 120.369 384.964 121.179L384.808 121.374L384.69 121.608C384.675 121.637 384.641 121.671 384.612 121.726C384.512 121.918 384.354 122.208 384.183 122.585L383.948 123.132L383.675 123.718C382.682 125.9 380.938 127.364 378.909 128.171L378.245 128.444L377.62 128.679C376.391 129.166 374.724 129.489 372.933 128.913C371.122 128.324 369.932 127.057 369.222 125.905L368.87 125.319L368.519 124.772C367.871 123.723 366.879 121.877 366.995 119.733V119.382L367.034 119.03C367.095 117.964 367.331 116.821 367.62 115.788L367.776 115.202L367.972 114.616L369.026 112.429C369.671 111.555 370.662 110.685 372.19 110.319Z" fill="#1E1E1E"/>
<ellipse cx="306.956" cy="119.23" rx="5.05299" ry="4.1843" fill="#1E1E1E"/>
<path d="M308.349 110.905C309.584 110.888 310.767 111.195 311.825 111.765L313.31 112.819L313.739 113.21L314.169 113.562C314.573 113.924 314.995 114.358 315.38 114.812C315.492 114.944 315.763 115.281 316.044 115.749L316.786 117.585L316.825 117.741V117.897C317.109 119.337 316.726 120.593 316.63 120.905C316.459 121.467 316.238 122.062 316.005 122.585L315.731 123.132L315.497 123.679C314.399 126.136 312.254 127.715 309.677 128.132L309.052 128.249L308.466 128.327C307.33 128.511 305.983 128.509 304.638 128.015C303.257 127.505 302.172 126.6 301.396 125.554L301.044 125.085L300.731 124.655C300.036 123.719 299.351 122.605 298.935 121.374L298.7 120.671C298.291 119.457 298.196 117.937 298.817 116.413C299.406 114.972 300.406 114.034 301.239 113.483L301.591 113.249L301.981 113.015C303.069 112.297 304.262 111.783 305.458 111.452L305.966 111.335L306.474 111.179L308.349 110.905ZM307.411 118.522C307.313 118.577 307.202 118.639 307.099 118.718C307.038 118.764 306.995 118.826 306.942 118.874C306.94 119.021 306.954 119.222 306.981 119.46V119.499C307 119.591 307.038 119.689 307.06 119.772V119.929H307.099C307.152 120.107 307.164 120.275 307.216 120.397C307.248 120.471 307.302 120.57 307.333 120.632C307.42 120.669 307.505 120.718 307.606 120.749C307.692 120.616 307.842 120.52 307.919 120.358L307.958 120.632L308.388 120.319L308.349 120.007L309.013 119.265L308.817 119.304L308.778 119.343L308.896 119.382L307.919 120.476V120.358C307.948 120.297 308.048 120.267 308.075 120.202C308.124 120.084 308.079 119.928 308.114 119.812L308.271 119.733V119.812H308.31V119.694L308.544 119.538L308.271 119.577V119.421H308.192C308.239 119.186 308.305 118.975 308.31 118.757C308.235 118.722 308.156 118.63 308.075 118.601C307.832 118.513 307.599 118.543 307.411 118.522ZM308.349 120.085L308.388 120.319L307.958 120.632L307.919 120.476L308.349 120.007V120.085ZM307.099 119.929H307.06V119.89H307.099V119.929ZM308.271 119.577L308.544 119.538L308.31 119.694V119.812H308.271V119.733L308.114 119.812C308.155 119.679 308.167 119.55 308.192 119.421H308.271V119.577ZM308.896 119.382L308.778 119.343L308.817 119.304L309.013 119.265L308.896 119.382Z" fill="#1E1E1E"/>
<path d="M272.597 217.88H409.533V242.646H272.597V217.88Z" fill="#FFD737"/>
<path d="M372.792 209.052L375.214 209.755C376.683 210.187 378.133 210.417 379.55 210.458L380.722 210.497L381.933 210.536C384.085 210.598 386.242 210.814 388.378 211.239L389.589 211.474L390.761 211.708C392.341 212.023 393.924 212.226 395.487 212.255H396.698L397.87 212.294C400.194 212.336 402.513 212.688 404.784 213.349L407.206 214.052C408.521 214.436 410.243 215.15 411.542 216.63C413.103 218.412 413.503 220.659 412.987 222.724L412.792 223.505L412.597 224.325C412.591 224.372 412.576 224.495 412.597 224.716C412.628 225.052 412.733 225.566 412.948 226.239L413.3 227.411L413.69 228.622C414.353 230.693 414.879 232.78 415.253 234.872L415.487 236.083L415.683 237.255C416.022 239.153 415.795 241.114 414.94 242.919C414.114 244.655 412.829 246.021 411.425 247.06L410.214 247.919L409.003 248.817C407.434 249.976 405.515 250.822 403.3 250.849C401.074 250.875 399.116 250.082 397.519 248.935L396.308 248.075L395.136 247.216C394.691 246.896 394.431 246.831 394.394 246.825H394.354C394.337 246.828 394.277 246.834 394.198 246.864L393.026 247.333L391.815 247.802C388.728 248.976 385.512 248.885 382.479 247.606L381.308 247.099L380.097 246.591C378.974 246.117 377.979 246.006 377.05 246.122L375.839 246.278L374.667 246.435C372.633 246.689 370.572 246.819 368.534 246.864L367.362 246.903H366.151C364.36 246.943 362.553 247.056 360.761 247.177L359.589 247.255L358.378 247.333C355.569 247.522 352.848 246.911 350.292 245.692L349.081 245.106L347.87 244.56C347.013 244.152 346.383 244.115 345.761 244.286L344.55 244.638L343.378 244.95C341.52 245.462 339.65 245.991 337.792 246.513L336.581 246.864L335.37 247.177C333.251 247.771 331.109 248.194 328.964 248.427L327.792 248.544L326.581 248.7C324.748 248.899 322.907 249.094 321.073 249.325L318.651 249.638C315.994 249.972 313.349 249.69 310.8 248.817L309.628 248.388L308.417 247.997C306.527 247.35 304.642 246.649 302.753 245.966L300.331 245.106C299.826 244.925 299.361 244.908 298.651 245.263L297.479 245.888L296.269 246.474C294.162 247.526 292.025 248.372 289.862 249.013L287.44 249.716C284.166 250.682 280.936 250.191 278.026 248.583L275.604 247.255C273.691 246.195 271.938 245.155 270.331 244.169L269.315 243.583L268.339 242.958C266.902 242.077 265.659 240.838 264.823 239.208C263.994 237.589 263.722 235.858 263.808 234.208L263.847 233.036L263.925 231.825C264.11 228.261 265.997 225.286 268.417 222.919L269.667 221.708L269.823 221.552C269.61 221.261 269.332 220.983 269.159 220.614C268.414 219.023 268.428 217.134 269.354 215.497C270.099 214.182 271.193 213.466 271.815 213.114C272.512 212.721 273.237 212.419 273.886 212.216L275.097 211.864L276.308 211.474C278.331 210.84 280.365 210.326 282.401 209.911L283.612 209.638L284.784 209.403C287.63 208.823 290.474 209.108 293.183 210.146L294.394 210.614L295.565 211.044C297.53 211.796 299.507 212.654 301.464 213.544L302.675 214.052L303.886 214.599C304.375 214.82 304.678 214.855 305.214 214.599L307.636 213.427C309.562 212.497 311.486 211.601 313.417 210.771L315.839 209.755C318.854 208.461 322.042 208.335 325.136 209.481L326.347 209.95L327.519 210.38C328.316 210.676 329.018 210.681 329.784 210.419L330.995 209.989L332.167 209.599C335.195 208.564 338.313 208.68 341.269 209.872L342.479 210.341L343.651 210.849C345.77 211.704 347.874 212.744 349.94 213.974L351.151 214.677L352.362 215.419C352.747 215.646 352.986 215.685 353.065 215.692C353.136 215.697 353.266 215.67 353.495 215.575L354.706 215.106L355.878 214.599C357.456 213.947 359.075 213.099 360.722 212.06L361.933 211.317L363.144 210.536C366.036 208.716 369.364 208.047 372.792 209.052ZM368.456 219.013L367.284 219.755L366.073 220.536C363.987 221.853 361.861 222.968 359.706 223.856L358.495 224.325L357.284 224.833C353.843 226.246 350.341 225.817 347.245 223.974L344.823 222.567C343.167 221.582 341.545 220.755 339.94 220.106L338.729 219.638L337.519 219.13C336.744 218.819 336.112 218.812 335.409 219.052L334.198 219.481L333.026 219.872C330.059 220.886 326.978 220.844 324.042 219.755L322.87 219.325L321.659 218.856C321.028 218.623 320.493 218.632 319.784 218.935L317.362 219.95C315.564 220.724 313.774 221.58 311.972 222.45L310.761 222.997L309.589 223.583C306.409 225.118 302.973 225.2 299.745 223.739L297.323 222.646C295.549 221.839 293.777 221.096 292.011 220.419L290.8 219.95L289.628 219.481C288.611 219.092 287.697 219.032 286.815 219.208L285.604 219.442L284.394 219.716C283.287 219.942 282.185 220.23 281.073 220.536C281.173 221.512 281.147 222.404 280.917 223.153C280.328 225.051 278.968 226.573 277.87 227.646L276.659 228.856L275.409 230.067C274.053 231.394 273.938 232.147 273.925 232.333L273.847 233.544L273.769 234.56L274.55 235.028L275.526 235.653C276.989 236.551 278.638 237.502 280.448 238.505L282.87 239.833C283.684 240.282 284.178 240.279 284.628 240.146L285.8 239.794L287.011 239.442C288.577 238.979 290.192 238.339 291.815 237.528L292.987 236.942L294.198 236.317C297.216 234.81 300.507 234.53 303.729 235.692L304.94 236.161L306.151 236.591C307.985 237.254 309.826 237.877 311.659 238.505L312.87 238.935L314.042 239.325C315.221 239.729 316.331 239.85 317.401 239.716L319.823 239.403C321.711 239.165 323.599 238.944 325.487 238.739L327.909 238.505C329.485 238.333 331.073 238.016 332.675 237.567L335.097 236.864C336.966 236.34 338.853 235.817 340.722 235.302L341.894 234.989L343.104 234.638C346.213 233.782 349.335 234.167 352.206 235.536L353.378 236.083L354.589 236.669C355.764 237.23 356.791 237.395 357.714 237.333L358.886 237.255L360.097 237.177C362.036 237.046 363.978 236.947 365.917 236.903H367.128L368.339 236.864C370.029 236.826 371.723 236.685 373.417 236.474L374.628 236.356L375.8 236.2C378.599 235.85 381.357 236.276 383.964 237.372L386.386 238.388C387.083 238.68 387.618 238.672 388.261 238.427L389.472 237.997L390.644 237.528C394.337 236.123 397.966 236.942 400.956 239.091L402.167 239.95L403.144 240.653L404.276 239.911L405.487 239.013C405.632 238.905 405.69 238.768 405.761 238.7L405.644 237.841L405.409 236.63C405.116 234.988 404.691 233.332 404.159 231.669L403.808 230.458L403.417 229.286C402.803 227.366 402.428 225.245 402.675 223.153L402.011 222.958C400.554 222.534 399.117 222.32 397.714 222.294L396.503 222.255H395.292C393.127 222.214 390.956 221.979 388.808 221.552L387.636 221.278L386.425 221.044C384.829 220.726 383.239 220.543 381.659 220.497H380.448L379.237 220.458C376.932 220.391 374.654 219.987 372.401 219.325L369.979 218.622C369.686 218.537 369.282 218.491 368.456 219.013Z" fill="#1E1E1E"/>
<path d="M61.8627 198.328C66.9865 179.516 69.3845 181.815 81.1334 193.103C93.4361 204.923 118.779 235.313 118.779 235.313L88.864 246.202L58.8241 277.026C58.8241 277.026 59.5053 206.983 61.8627 198.328Z" fill="#1E1E1E"/>
<path d="M70.9886 182.23L71.88 182.064C75.2018 181.398 78.4976 182.523 81.15 184.142L83.4644 185.577C86.5099 187.437 88.6601 190.022 89.8221 193.008L90.2844 194.24L90.7847 195.463C91.3331 196.872 92.0493 198.006 92.8631 198.92L94.5429 200.816C95.3195 201.688 96.3227 202.516 97.675 203.244L98.9465 203.935L100.202 204.591C103.047 206.118 105.411 208.187 107.052 210.767L108.415 212.894C109.972 215.345 110.795 218.01 111.058 220.746L111.171 222.137L111.212 222.796L112.737 223.114L114.539 223.487C116.499 223.893 118.949 224.739 120.845 226.64C122.942 228.749 123.412 231.168 123.169 233.111L123.013 234.366L122.872 235.658C122.525 238.422 121.351 240.831 119.353 242.764L117.652 244.414C114.983 246.994 111.166 247.459 107.247 246.493L105.69 246.103L104.094 245.723C102.813 245.409 102.428 245.616 102.283 245.706L100.316 246.946C98.9216 247.822 97.6801 248.726 96.5522 249.622L95.7366 250.242L94.9368 250.898C94.3306 251.38 93.7622 252.104 93.3683 253.227L92.9806 254.339L92.5771 255.416C91.9333 257.255 90.6106 258.677 88.6982 259.535C86.8855 260.345 84.7984 260.554 82.8138 260.455L80.971 260.368L80.4127 260.339L80.5266 260.785L80.8427 262.443C81.1939 264.275 81.1982 266.324 80.2583 268.126C79.252 270.041 77.4347 271.204 75.3014 271.706L72.5986 272.328C71.7494 272.529 71.5469 272.825 71.4117 273.152L70.9543 274.202L70.5349 275.243C70.1785 276.112 69.7907 276.97 69.3723 277.635C69.1833 277.935 68.8328 278.444 68.2994 278.905C68.0861 279.089 66.1732 280.793 63.0335 279.801L62.6339 279.657C61.7558 279.377 61.1008 278.968 60.9407 278.866C60.6699 278.694 60.4391 278.52 60.2686 278.391C59.9202 278.128 59.5308 277.843 59.178 277.54C58.4544 276.918 57.5339 276.037 56.4107 274.989L53.5579 272.34C50.5838 269.565 48.1366 265.661 49.7399 261.649L50.1593 260.608L50.6168 259.558C51.1778 258.154 51.5523 256.729 51.7964 255.312L51.978 254.208L52.1754 253.14C52.4075 251.787 52.4697 250.375 52.34 248.97L52.2234 247.855L52.1449 246.732C51.8467 243.504 53.1558 240.822 55.3063 238.725L57.2933 236.773C57.361 236.706 57.3836 236.631 57.4203 236.586L56.8216 235.425L56.1151 234.21C54.7402 231.713 53.9494 229.142 53.9032 226.574L53.9008 225.433L53.8761 224.337C53.8227 221.358 55.0405 218.824 57.0215 216.766L57.9769 215.799L58.5101 215.204L57.5594 214.006L56.4311 212.691C53.9148 209.673 52.4959 205.952 54.148 202.434L54.6213 201.42L55.1327 200.397C55.9028 198.758 56.252 197.898 56.3431 197.64L56.4606 197.337L56.4893 197.213C56.5002 197.144 56.5424 197.016 56.5593 196.803C56.5937 196.365 56.6143 195.716 56.6209 194.861L56.6185 193.72L56.6384 192.535C56.6683 189.02 58.6432 186.447 61.9563 185.134L63.1715 184.657L64.3485 184.19C66.3573 183.396 68.2801 182.801 70.075 182.44L70.9886 182.23ZM67.1585 193.932C67.1554 193.955 67.1683 194 67.1679 194.048L67.1703 195.189L67.1505 196.374C67.143 197.323 67.137 198.17 67.0822 198.869C67.0354 199.464 66.923 200.313 66.6652 201.05L66.5857 201.344L66.4681 201.647C66.2269 202.335 65.6661 203.561 64.9401 205.107L64.4668 206.121L64.0221 207.01C64.0565 207.1 64.171 207.389 64.5702 207.868L65.6605 209.191L66.7729 210.47C68.0939 212.054 69.1797 214.019 69.3446 216.175C69.5126 218.398 68.6596 220.228 67.3426 221.593L66.4094 222.516L65.454 223.484C64.579 224.392 64.4195 225.106 64.4249 225.609L64.4273 226.75L64.4678 227.882C64.4867 228.792 64.7486 229.865 65.4583 231.156L66.1648 232.371L66.8332 233.595C67.7874 235.325 68.27 237.253 67.9967 239.151C67.7252 241.003 66.7762 242.501 65.5608 243.686L63.5738 245.638C62.6651 246.526 62.6039 247.096 62.6306 247.39L62.763 248.54L62.8416 249.663C63.0369 251.781 62.9719 253.86 62.6248 255.891L62.2617 258.1C61.9236 260.065 61.3735 261.992 60.6242 263.867L60.1668 264.917L59.8491 265.62L59.903 265.647C60.0387 265.824 60.276 266.099 60.6257 266.425L61.9823 267.687C63.3301 265.379 65.6144 263.877 68.5068 263.195L70.4483 262.749C70.4423 262.712 70.4465 262.674 70.4388 262.633L69.8067 259.315C69.4264 257.333 69.5191 254.847 71.3589 252.977C73.1946 251.115 75.8981 250.765 78.1038 250.875L81.7893 251.05C82.1376 251.067 82.3964 251.043 82.576 251.026L82.8556 250.332L83.2433 249.22C84.0364 246.955 85.3288 244.98 87.2343 243.462L88.0721 242.797L88.8877 242.177C90.2773 241.073 91.7874 239.995 93.4225 238.969L94.4062 238.349L95.3518 237.738C98.2481 235.92 101.848 235.804 105.414 236.683L106.971 237.073L108.566 237.453C109.012 237.562 109.229 237.524 109.308 237.519C109.318 237.512 109.382 237.531 109.422 237.492L111.124 235.842C111.769 235.216 112.195 234.382 112.343 233.2L112.407 232.398L111.894 232.281L110.13 231.899C108.043 231.466 105.719 230.589 103.833 228.862C101.859 227.052 100.99 224.879 100.799 222.87L100.647 221.488L100.534 220.097C100.383 218.526 99.95 217.38 99.4168 216.537L98.0544 214.411C97.5985 213.693 96.9317 213.056 95.8544 212.477L94.583 211.786L93.3273 211.13C90.7599 209.752 88.5059 208.008 86.6605 205.935L84.9807 204.039C83.1718 202.006 81.801 199.722 80.8492 197.276L80.3869 196.044L79.8866 194.822C79.5484 193.952 79.0954 193.465 78.4922 193.096L77.2968 192.387L76.1396 191.67C75.7302 191.42 75.4828 191.325 75.385 191.292L73.8622 191.643C72.8366 191.848 71.4839 192.227 69.8014 192.891L68.6243 193.359L67.4091 193.835L67.1585 193.932Z" fill="#1E1E1E"/>
<path d="M209.787 211.779C209.696 192.171 207.063 193.144 194.159 197.938C180.647 202.959 149.115 227.438 149.115 227.438L173.122 241.68L200.419 279.959C200.419 279.959 209.829 220.8 209.787 211.779Z" fill="#1E1E1E"/>
<path d="M210.614 196.44C209.012 195.114 207.476 193.96 206.039 192.95L204.372 191.771C201.781 189.95 198.74 189.507 195.792 189.879L194.511 190.034L193.204 190.218C189.758 190.656 186.905 192.348 184.838 194.998L183.995 196.074L183.178 197.121C182.184 198.395 181.151 199.342 180.116 200.009L179.071 200.665L178.082 201.316C177.118 201.936 175.925 202.422 174.48 202.691L171.876 203.168C168.905 203.72 166.261 205.034 164.12 207.135L163.204 207.999L162.344 208.858C160.316 210.854 158.919 213.328 158.02 216.077L157.568 217.477L157.37 218.175L155.866 217.993L154.16 217.745C152.666 217.555 149.728 217.384 147.425 219.311C144.56 221.709 145.071 225.06 145.555 226.638L146.378 229.249C147.16 231.799 148.311 234.154 149.906 236.233L150.688 237.236L151.499 238.265C153.947 241.447 157.571 242.609 161.342 242.269L162.877 242.121L164.385 242.003C165.566 241.895 165.854 242.144 165.919 242.21L166.8 243.041L167.654 243.903C168.544 244.755 169.256 245.728 169.771 246.876L170.252 247.985L170.758 249.064C171.409 250.515 171.942 252.09 172.362 253.743L173.005 256.204C173.532 258.265 174.716 260.027 176.496 261.28C178.182 262.465 180.157 263.045 182.051 263.301L183.839 263.515L184.38 263.609L184.247 264.057L183.846 265.753C183.423 267.628 183.321 269.794 184.13 271.873C184.994 274.087 186.678 275.644 188.687 276.566L189.997 277.145L191.251 277.729C193.022 278.54 194.612 279.413 196.037 280.329L198.168 281.69C198.638 281.993 199.423 282.488 200.333 282.776C200.728 282.9 201.852 283.209 203.212 282.932C203.991 282.771 204.925 282.394 205.727 281.67C206.525 280.947 206.98 280.089 207.203 279.343C207.591 278.033 207.335 276.921 207.235 276.529C207.104 276.019 206.914 275.587 206.771 275.282C206.479 274.661 206.083 274.015 205.698 273.428L204.835 272.103L204.672 271.816L205.579 271.199L207.106 270.233C210.336 268.186 213.28 264.804 212.497 260.145L212.287 258.906L212.052 257.696C211.777 256.067 211.657 254.472 211.677 252.921L211.713 250.516C211.732 249.033 211.933 247.564 212.296 246.129L212.572 244.988L212.873 243.818C213.704 240.516 212.914 237.336 211.272 234.526L210.525 233.247L209.804 231.938C209.74 231.829 209.698 231.74 209.671 231.676L210.462 230.658L211.275 229.557C212.977 227.311 214.159 224.827 214.598 222.116L214.758 220.93L214.973 219.739C215.32 217.574 215.004 215.402 213.92 213.488C214.69 212.321 215.117 211.052 215.358 209.963L215.901 207.573C216.272 205.894 216.25 204.08 215.629 202.325C215.01 200.583 213.893 199.159 212.568 198.061L210.614 196.44ZM205.716 206.735L205.678 206.956C205.122 207.037 204.423 207.214 203.73 207.573C203.017 207.945 202.118 208.598 201.507 209.686C200.879 210.808 200.818 211.957 200.942 212.87C201.152 214.411 201.994 215.46 202.298 215.821C202.72 216.321 203.189 216.76 203.608 217.11L204.961 218.232L204.935 218.262L204.775 219.448L204.56 220.639C204.405 221.578 203.982 222.615 203.118 223.755L202.275 224.831L201.462 225.932C200.293 227.475 199.538 229.325 199.473 231.385C199.412 233.406 200.04 235.246 200.969 236.836L202.463 239.394C203.161 240.589 203.099 241.239 203.025 241.534L202.749 242.675L202.447 243.845C201.902 246.009 201.617 248.209 201.588 250.437L201.57 251.64L201.522 252.817C201.493 254.973 201.666 257.15 202.033 259.329L202.269 260.539L202.419 261.374L202.393 261.403C202.238 261.549 201.967 261.719 201.593 261.957L198.489 263.948C196.98 264.906 195.457 266.332 194.588 268.322L194.326 268.206L193.772 267.949L193.763 267.841L194.164 266.144L194.535 264.422C194.989 262.396 195.027 259.777 193.371 257.471C191.712 255.164 189.164 254.293 187.055 254.008L185.294 253.764L183.506 253.55C183.157 253.503 182.904 253.417 182.733 253.365L182.531 252.589L182.21 251.359C181.66 249.195 180.949 247.094 180.061 245.112L179.58 244.003L179.074 242.924C178.051 240.642 176.619 238.586 174.802 236.844L173.951 236.037L173.071 235.205C170.407 232.652 166.926 231.849 163.472 232.165L161.968 232.338L160.459 232.456L159.699 232.434C159.693 232.429 159.676 232.384 159.634 232.33L158.071 230.323C157.544 229.636 157.148 228.826 156.762 227.969C158.623 228.134 160.691 227.978 162.612 226.936C164.815 225.738 166.107 223.817 166.762 221.806L167.244 220.43L167.697 219.03C168.208 217.462 168.86 216.42 169.547 215.745L170.437 214.911L171.297 214.051C171.878 213.48 172.653 213.054 173.76 212.848L176.365 212.37C179 211.88 181.453 210.943 183.647 209.533L184.636 208.882L185.68 208.226C187.799 206.864 189.662 205.115 191.262 203.065L192.079 202.018L192.922 200.942C193.447 200.269 193.895 200.05 194.448 199.976L195.755 199.791L197.036 199.636C198.064 199.505 198.359 199.722 198.394 199.748L200.06 200.927C201.235 201.752 202.566 202.753 204.008 203.948L205.992 205.594L205.716 206.735Z" fill="#1E1E1E"/>
<path d="M71.2455 264.065C106.063 213.476 152.909 196.613 187.58 259.087C222.25 321.562 230.774 547.93 230.774 547.93H7.94043C7.94043 547.93 27.4167 327.747 71.2455 264.065Z" fill="#1E1E1E"/>
<path d="M220.831 402.107L221.144 403.279L221.495 404.451C221.657 405.033 222.136 405.989 223.565 407.225L224.815 408.318L226.065 409.373C228.623 411.579 230.612 414.457 230.909 418.045L231.026 419.256L231.104 420.467C231.38 423.871 230.147 426.986 228.214 429.646L227.237 430.936L226.3 432.264C225.994 432.687 225.864 432.939 225.831 433.045L226.339 434.1L226.886 435.271C227.897 437.495 228.542 439.807 228.839 442.186L228.995 443.396L229.151 444.568C229.423 446.762 229.48 448.989 229.308 451.209L229.19 452.42L229.112 453.631C228.969 455.467 228.842 457.319 228.761 459.139L228.722 460.35L228.683 461.521C228.593 463.531 228.389 465.559 228.136 467.576L228.019 468.787L227.862 469.998C227.851 470.091 227.84 470.192 227.901 470.35C227.976 470.538 228.165 470.897 228.644 471.404L229.737 472.537L230.792 473.67C233.282 476.306 234.745 479.756 233.878 483.67L233.604 484.92L233.331 486.131C233.202 486.72 233.263 487.297 233.722 488.084L234.386 489.256L235.089 490.389C236.034 492.01 236.567 493.873 236.495 495.857C236.422 497.812 235.757 499.587 234.815 501.131L234.073 502.381L233.292 503.631C232.646 504.692 232.713 505.249 232.784 505.545L233.331 507.889C233.833 509.989 234.158 512.117 234.308 514.256L234.386 515.467L234.464 516.639C234.561 518.022 234.886 519.459 235.401 520.896L235.831 522.068L236.222 523.24C237.109 525.711 237.49 528.295 237.315 530.896L237.159 533.318C237.032 535.224 236.879 537.124 236.729 539.021L236.573 541.443C236.361 544.145 235.429 546.905 233.253 548.982L231.925 550.232C230.033 552.038 227.64 553.067 225.167 553.592L223.956 553.826L222.784 554.1C220.899 554.5 219.006 554.894 217.12 555.271L215.909 555.506L214.737 555.74C212.491 556.19 210.209 556.379 207.94 556.287L206.729 556.209L205.519 556.17C203.538 556.088 201.56 555.925 199.581 555.701L198.37 555.584L197.159 555.428C194.304 555.101 191.669 553.955 189.269 552.264L188.058 551.443L186.847 550.584C185.801 549.849 185.194 549.831 184.854 549.881L183.683 550.076L182.472 550.232C181.4 550.391 180.177 550.848 178.8 551.717L177.589 552.459L176.417 553.201C173.911 554.782 171.125 555.749 168.175 555.779H167.003L165.792 555.818C163.163 555.846 160.587 555.279 158.136 554.217L156.964 553.709L155.753 553.162C154.208 552.493 152.691 552.027 151.222 551.756L150.011 551.561L148.839 551.326C147.099 551.005 145.34 550.766 143.604 550.584L142.433 550.467L141.222 550.311C139.34 550.113 137.439 549.9 135.558 549.686L134.386 549.568L133.175 549.412C131.856 549.262 130.535 549.361 129.19 549.646L127.979 549.881L126.769 550.154C124.441 550.649 122.092 550.774 119.737 550.584L118.526 550.506L117.315 550.389C115.155 550.213 113.004 549.859 110.87 549.295L108.448 548.67C108.301 548.63 107.94 548.494 107.042 549.139L105.87 549.998L104.659 550.857C102.477 552.425 100.184 553.674 97.8232 554.529L96.6514 554.959L95.4404 555.428C92.625 556.446 89.6986 556.544 86.8076 555.74L85.5967 555.428L84.3857 555.076C82.8364 554.645 81.291 554.401 79.7764 554.295L78.6045 554.217L77.3936 554.1C75.7973 553.988 74.1867 554.03 72.5889 554.178L71.417 554.295L70.2061 554.412C68.2298 554.595 66.2462 554.712 64.2686 554.764H63.0576L61.8857 554.803C58.8597 554.881 55.9958 553.953 53.4482 552.342L52.2764 551.6L51.0654 550.818C50.894 550.71 50.7648 550.679 50.7139 550.662C50.6802 550.673 50.6147 550.689 50.5186 550.74L49.3076 551.365L48.0967 552.029C45.4455 553.457 42.5576 554.114 39.542 553.748L38.3311 553.631L37.1201 553.475C35.5283 553.281 33.9411 553.211 32.3545 553.279L31.1436 553.318L29.9717 553.396C27.8936 553.486 25.7981 553.415 23.7217 553.24L22.5107 553.162L21.2998 553.045C18.8731 552.839 16.4972 552.222 14.1904 551.248L12.9795 550.74L11.8076 550.232C10.1396 549.528 8.54223 549.006 7.08105 548.631L4.89355 548.084C4.13793 547.89 2.74751 547.418 1.6123 546.248C0.135161 544.723 -0.309952 542.652 0.206055 540.779C0.610968 539.325 1.50287 538.288 2.04199 537.732C2.65936 537.096 3.39879 536.52 4.1123 536.014L7.08105 533.904C7.88602 533.332 8.26843 532.876 8.44824 532.615C8.49761 532.543 8.54799 532.495 8.56543 532.459L8.72168 530.037C8.78047 528.92 8.57382 527.686 8.05762 526.326L7.58887 525.076L7.12012 523.787C6.33238 521.717 5.60485 519.655 5.01074 517.576L4.30762 515.076C3.58373 512.542 3.36797 509.954 3.68262 507.381L3.7998 506.17L3.95605 504.959C4.16935 503.221 4.32885 501.477 4.4248 499.725L4.50293 498.514L4.54199 497.303C4.74954 493.497 6.97233 490.538 9.69824 488.396L11.0264 487.381L12.3154 486.326C12.6083 486.096 12.7641 485.895 12.8623 485.779L12.667 484.803L12.3936 483.553C11.7409 480.693 11.893 477.822 12.9404 475.076L13.3701 473.943L13.8389 472.771C14.187 471.855 14.2649 470.912 14.0732 469.842L13.8389 468.592L13.6436 467.342C13.1638 464.666 13.2964 462.002 14.0732 459.412L14.3857 458.24L14.7373 457.107C14.8556 456.713 14.9261 456.063 14.3857 454.92L13.7607 453.592L13.1357 452.303C12.2015 450.325 11.8968 447.988 12.7451 445.623C13.5467 443.398 15.142 441.779 16.7686 440.662L18.2139 439.686L19.2686 438.943L19.0342 438.475L18.292 437.146C16.5511 434.023 15.9675 430.378 17.6279 426.834L18.1357 425.74L18.6826 424.607C19.3873 423.103 19.9467 421.563 20.3623 420.037L20.6748 418.865L20.9873 417.732C21.1322 417.201 21.1556 416.414 20.6357 415.193L19.542 412.537C18.8314 410.865 18.4504 409.015 18.6826 407.068C18.9179 405.105 19.7154 403.367 20.8701 401.912L21.7295 400.857L22.5498 399.803C23.5024 398.603 24.0823 397.445 24.3857 396.365L24.7373 395.193L25.0498 394.021C25.7473 391.529 26.9726 389.243 28.6045 387.146L29.4248 386.092L30.1279 385.115C30.0941 385.03 30.0462 384.902 29.9717 384.764L28.4873 382.029C26.9011 379.093 26.1298 375.746 27.1201 372.342L27.4717 371.17L27.8232 370.037C28.5036 367.705 29.5514 365.497 30.9482 363.436L31.6514 362.342L32.3936 361.287C33.3824 359.828 34.237 358.349 34.9326 356.873L35.9482 354.686C36.5193 353.474 36.8787 352.22 37.0029 350.936L37.1201 349.725L37.2373 348.553C37.3752 347.128 37.3273 345.579 37.0811 343.943L36.6904 341.365C36.3325 338.985 36.2387 336.618 36.4561 334.295L36.6904 331.873C36.8708 329.945 37.0584 328.013 37.2764 326.092L37.4326 324.881L37.5498 323.67C38.0081 319.631 40.7142 316.845 43.8389 315.115L45.2842 314.334L45.9873 313.904L45.6357 313.162L44.8936 311.678C43.2769 308.347 42.7501 304.323 45.167 300.74L45.8701 299.686L46.5732 298.67C47.4255 297.41 48.1019 296.105 48.5654 294.764L48.9561 293.592L49.3467 292.459C50.1753 290.056 51.4565 287.879 53.1357 285.936L53.9561 284.959L54.7764 284.021C55.4946 283.19 55.9126 282.3 56.1045 281.287L56.5732 278.865C57.1748 275.691 58.8892 273.075 61.417 271.131L62.4326 270.311L63.4873 269.529C64.2699 268.927 64.5898 268.341 64.7373 267.732L65.0107 266.521L65.2842 265.35C65.5031 264.425 65.73 263.637 65.9092 263.045C65.9864 262.79 66.1153 262.361 66.2998 261.951C66.3608 261.817 66.6329 261.237 67.1201 260.662C67.1495 260.628 67.1937 260.593 67.2373 260.545C67.3516 260.272 67.5037 259.94 67.667 259.529L68.6045 257.186C69.9405 253.836 72.5794 251.653 75.8311 250.545L77.1982 250.076L78.5264 249.607C78.7135 249.544 78.8355 249.517 78.8779 249.49V249.451C78.8927 249.417 78.9274 249.332 78.9561 249.178L79.2295 247.811L79.4639 246.443C79.9585 243.79 80.8861 241.3 82.2373 239.061L82.8623 238.006L83.5264 236.912C85.2285 234.097 87.8036 232.243 90.9092 231.326L92.2373 230.936L93.5264 230.545C95.0584 230.093 96.3145 229.503 97.3154 228.787L98.2529 228.084L99.2295 227.381C100.245 226.655 101.245 225.695 102.159 224.412L102.901 223.318L103.683 222.225C105.515 219.653 108.03 217.862 111.104 217.029L112.315 216.678L113.526 216.365C116.562 215.543 119.646 215.804 122.589 216.873L123.956 217.381L125.089 217.771C125.149 217.707 125.242 217.642 125.323 217.537L126.339 216.17L127.394 214.842C128.562 213.347 130.108 211.935 132.12 211.17C133.182 210.767 134.262 210.609 135.323 210.623L138.448 211.209L140.948 212.146C142.145 212.591 143.41 212.756 144.776 212.615L146.104 212.459L147.472 212.342C149.417 212.141 151.421 212.447 153.253 213.475C155.049 214.486 156.359 215.994 157.276 217.615L158.019 218.943L158.8 220.271C159.565 221.626 160.249 222.111 160.714 222.303L161.847 222.771L162.94 223.24C164.901 224.049 166.827 225.006 168.683 226.092L170.792 227.342C172.374 228.267 174.068 229.163 175.831 230.076L177.003 230.701L178.175 231.287C180.121 232.295 181.666 233.917 182.472 236.053C183.228 238.062 183.217 240.176 182.901 242.068L182.589 243.826L182.433 244.686L183.331 244.881L185.089 245.154C187.006 245.484 189.094 246.244 190.753 247.85C192.098 249.153 192.876 250.733 193.175 252.381L193.331 254.021V256.834C193.341 257.849 193.63 258.403 194.034 258.826L194.894 259.725L195.792 260.662C198.806 263.82 198.973 267.856 197.706 271.443L197.198 272.928L197.003 273.436L198.214 273.943L199.894 274.646C203.45 276.115 206.914 279.032 206.886 283.904V285.193L206.847 286.482C206.835 288.244 206.973 289.941 207.198 291.561L207.354 292.771L207.511 293.943C207.723 295.469 208.089 296.965 208.604 298.396L209.034 299.529L209.425 300.662C210.606 303.932 210.155 307.263 208.8 310.271L208.175 311.678L207.55 313.045C207.497 313.163 207.453 313.252 207.433 313.318L208.331 314.334L209.269 315.35C211.127 317.473 212.469 319.919 213.136 322.615L213.409 323.748L213.722 324.92C214.493 328.039 213.96 331.158 212.667 334.021L212.081 335.35L211.729 336.131L212.901 337.029L214.19 338.045C217.122 340.303 219.257 343.629 218.722 347.85L218.409 350.35C218.149 352.378 217.846 354.417 217.472 356.443L217.003 358.943C216.902 359.493 216.964 359.979 217.433 360.662L218.214 361.795L218.956 362.889C220.494 365.118 221.567 367.543 222.042 370.154L222.237 371.365L222.472 372.537C223.085 375.928 222.109 379.129 220.362 381.912L219.542 383.24L219.269 383.592L220.284 384.295L221.729 385.311C223.426 386.497 225.272 388.38 225.753 391.131C226.245 393.96 225.083 396.373 223.761 398.045L221.651 400.701C221.113 401.382 220.929 401.829 220.87 402.029L220.831 402.107ZM28.6045 408.279C28.6147 408.336 28.6454 408.451 28.7217 408.631L29.2686 409.959L29.8545 411.287C31.0797 414.17 31.4768 417.262 30.6357 420.35L30.0107 422.693C29.4408 424.782 28.6812 426.827 27.7451 428.826L27.1982 429.959L26.6904 431.092C26.6496 431.179 26.6454 431.216 26.6514 431.287C26.6608 431.396 26.6999 431.715 27.0029 432.264L27.7451 433.631L28.5264 434.959C29.5793 436.856 30.1444 439.247 29.3857 441.756C28.6629 444.134 26.9783 445.815 25.3232 446.951L23.8779 447.928L22.5498 448.787L22.8232 449.334L23.4092 450.623C24.7892 453.539 25.305 456.754 24.3467 459.959L23.9951 461.131L23.6436 462.264C23.3397 463.277 23.2708 464.376 23.4873 465.584L23.6826 466.834L23.917 468.084C24.4179 470.886 24.1868 473.666 23.1748 476.326L22.7451 477.498L22.2764 478.631C21.9599 479.461 21.8926 480.325 22.1201 481.326L22.4326 482.576L22.7061 483.826C23.7207 488.253 21.5226 491.816 18.5264 494.178L17.1982 495.232L15.8701 496.248C15.1861 496.785 14.8566 497.242 14.6982 497.498C14.5644 497.718 14.5436 497.821 14.542 497.85L14.4639 499.061L14.4248 500.232C14.3164 502.221 14.1205 504.235 13.8779 506.209L13.7217 507.381L13.6045 508.592C13.4646 509.733 13.5342 510.957 13.917 512.303L14.2686 513.553L14.6592 514.803C15.1733 516.602 15.7655 518.418 16.4561 520.232L17.3936 522.732C18.3572 525.263 18.8221 527.895 18.6826 530.545L18.6436 531.756L18.5654 532.967C18.3955 536.196 16.691 538.714 14.542 540.662C14.9106 540.807 15.3042 540.896 15.6748 541.053L16.8857 541.561L18.0967 542.029C19.5154 542.628 20.8607 542.975 22.1592 543.084L23.3701 543.201L24.542 543.279C26.1917 543.418 27.8548 543.467 29.5029 543.396L30.7139 543.357L31.9248 543.279C34.0627 543.187 36.1984 543.293 38.3311 543.553L39.542 543.67L40.7529 543.826C41.462 543.911 42.2978 543.818 43.3701 543.24L44.5811 542.576L45.7529 541.951C49.2892 540.044 53.1018 540.285 56.417 542.381L57.6279 543.123L58.7998 543.904C59.9853 544.654 60.9051 544.821 61.6123 544.803L62.8232 544.764H63.9951C65.7477 544.718 67.5147 544.614 69.2686 544.451L71.6904 544.217C73.8211 544.02 75.9645 543.99 78.0967 544.139L79.2686 544.217L80.4795 544.295C82.6941 544.45 84.9013 544.859 87.0811 545.467L88.292 545.779L89.4639 546.131C90.3021 546.364 91.128 546.345 92.042 546.014L93.2529 545.584L94.4248 545.154C95.7978 544.657 97.2881 543.885 98.8389 542.771L100.011 541.873L101.222 541.014C104.044 538.989 107.44 538.033 111.026 538.982L112.198 539.295L113.409 539.607C114.996 540.027 116.576 540.301 118.136 540.428L119.347 540.545L120.558 540.623C121.926 540.732 123.302 540.647 124.698 540.35L125.909 540.115L127.081 539.842C129.468 539.334 131.896 539.215 134.308 539.49L135.519 539.646L136.69 539.764C138.542 539.975 140.425 540.194 142.276 540.389L143.448 540.506L144.659 540.623C146.653 540.832 148.647 541.115 150.636 541.482L153.058 541.951C155.316 542.37 157.554 543.037 159.737 543.982L160.909 544.529L162.12 545.037C163.398 545.59 164.573 545.828 165.675 545.818L166.886 545.779H168.097C168.877 545.769 169.846 545.532 171.065 544.764L172.276 544.021L173.487 543.24C175.834 541.763 178.338 540.744 180.987 540.35L182.198 540.154L183.409 539.998C186.801 539.497 189.946 540.531 192.628 542.42L193.8 543.24L195.011 544.1C196.334 545.032 197.423 545.406 198.292 545.506L199.503 545.662L200.714 545.779C202.458 545.976 204.206 546.099 205.948 546.17L207.159 546.248L208.331 546.287C209.789 546.347 211.265 546.231 212.745 545.936L215.167 545.467C217.012 545.098 218.868 544.686 220.714 544.295L221.886 544.061L223.097 543.787C224.329 543.526 224.833 543.171 225.011 543.006L226.339 541.756C226.334 541.763 226.34 541.731 226.378 541.639C226.437 541.496 226.531 541.193 226.573 540.662L226.69 539.451L226.769 538.24C226.915 536.382 227.073 534.521 227.198 532.654L227.354 530.232C227.433 529.057 227.283 527.859 226.847 526.639L226.417 525.467L225.987 524.256C225.177 521.999 224.667 519.685 224.503 517.342L224.425 516.17L224.347 514.959C224.236 513.376 223.979 511.802 223.604 510.232L223.331 509.021L223.058 507.85C222.254 504.481 223.024 501.254 224.737 498.436L225.519 497.186L226.261 495.936C226.386 495.729 226.434 495.575 226.456 495.506L226.417 495.428L225.753 494.295L225.089 493.123C223.451 490.316 222.851 487.165 223.565 483.943L224.112 481.521L224.151 481.443L224.112 481.404C224.085 481.323 223.974 481.02 223.526 480.545L222.472 479.412L221.378 478.279C218.996 475.757 217.47 472.5 217.94 468.748L218.097 467.537L218.214 466.326C218.434 464.573 218.605 462.83 218.683 461.092L218.722 459.881L218.8 458.67C218.886 456.743 219 454.791 219.151 452.85L219.229 451.639L219.347 450.428C219.467 448.87 219.418 447.335 219.229 445.818L219.073 444.607L218.917 443.436C218.752 442.109 218.401 440.766 217.784 439.412L217.237 438.279L216.729 437.107C214.957 433.215 216.017 429.389 218.214 426.365L219.151 425.076L220.128 423.748C221.108 422.393 221.167 421.618 221.144 421.287L221.065 420.076L220.948 418.865C220.935 418.711 220.83 418.064 219.542 416.951L218.292 415.857L217.042 414.803C214.62 412.713 212.691 410.16 211.847 407.107L211.534 405.936L211.183 404.764C210.109 400.855 211.598 397.275 213.8 394.49L214.854 393.162L215.05 392.85L214.542 392.498L213.097 391.482C211.439 390.323 209.707 388.594 209.034 386.131C208.323 383.515 209.081 381.11 210.245 379.256L211.886 376.6C212.695 375.311 212.678 374.629 212.628 374.334L212.433 373.123L212.198 371.951C212.004 370.883 211.54 369.749 210.714 368.553L209.972 367.459L209.19 366.365C207.301 363.626 206.545 360.432 207.159 357.107L207.394 355.896L207.628 354.646C207.969 352.801 208.251 350.942 208.487 349.1L208.644 347.85L208.761 346.639C208.672 346.518 208.493 346.281 208.097 345.975L206.808 344.959L205.519 343.982C203.968 342.789 202.506 341.143 201.847 338.943C201.166 336.665 201.537 334.434 202.394 332.537L203.565 329.881C204.128 328.631 204.12 327.855 203.995 327.342L203.722 326.17L203.409 324.998C203.177 324.061 202.687 323.045 201.729 321.951L200.831 320.936L199.933 319.881C198.656 318.423 197.718 316.637 197.472 314.568C197.23 312.535 197.683 310.6 198.448 308.904L199.698 306.17C200.262 304.918 200.143 304.318 200.05 304.061L199.62 302.928L199.229 301.795C198.475 299.705 197.936 297.558 197.628 295.35L197.433 294.139L197.276 292.928C196.981 290.804 196.832 288.625 196.847 286.404L196.886 285.115V284.295C196.717 284.186 196.446 284.061 196.065 283.904L192.706 282.498C190.81 281.714 188.744 280.402 187.55 278.123C186.288 275.712 186.503 273.173 187.237 271.092L187.745 269.607L188.292 268.084C188.406 267.757 188.396 267.538 188.409 267.42L187.667 266.639L186.808 265.701C184.47 263.253 183.353 260.19 183.331 256.873V254.998L181.651 254.725L179.894 254.451C177.778 254.087 175.394 253.106 173.8 250.857C172.205 248.607 172.08 246.021 172.433 243.904L172.745 242.186L173.019 240.428C173.052 240.227 173.049 240.052 173.058 239.92L172.394 239.568L171.222 238.943C169.321 237.959 167.49 236.952 165.753 235.936L164.698 235.311L163.604 234.686C162.148 233.835 160.667 233.085 159.151 232.459L158.019 232.029L156.886 231.561C153.865 230.313 151.663 227.978 150.089 225.193L149.308 223.865L148.565 222.537C148.491 222.407 148.417 222.325 148.37 222.264L147.159 222.42L145.792 222.576C142.93 222.871 140.115 222.523 137.433 221.521L136.183 221.053L135.44 220.779C135.388 220.839 135.348 220.932 135.284 221.014L133.175 223.67C131.961 225.224 130.351 226.65 128.253 227.381C126.088 228.131 123.904 227.979 121.925 227.264L119.19 226.248C117.876 225.771 116.899 225.809 116.144 226.014L114.933 226.326L113.722 226.678C113.006 226.872 112.414 227.248 111.847 228.045L111.065 229.1L110.284 230.193C108.799 232.278 107.06 234.068 105.05 235.506L103.097 236.912C101.08 238.352 98.811 239.428 96.3389 240.154L95.0498 240.545L93.7607 240.896C92.8592 241.161 92.3973 241.583 92.0811 242.107L91.417 243.162L90.792 244.256C90.1238 245.365 89.6053 246.682 89.3076 248.279L89.0732 249.646L88.7998 251.014C88.4621 252.827 87.711 254.575 86.417 256.053C85.1261 257.524 83.4989 258.51 81.7686 259.1L80.4014 259.568L79.0732 259.998C78.1481 260.312 77.9967 260.657 77.9014 260.896L77.4326 262.068L76.9639 263.201C76.5981 264.122 76.2607 264.926 75.9873 265.506C75.8668 265.761 75.6781 266.149 75.4404 266.521C75.4128 266.565 75.3157 266.616 75.2451 266.717C75.1797 266.975 75.0983 267.285 75.0107 267.654L74.7373 268.826L74.4639 270.037C73.74 273.075 72.0218 275.582 69.5811 277.459L68.5264 278.24L67.5107 279.061C66.8076 279.601 66.4955 280.093 66.3779 280.701L66.1826 281.951L65.9482 283.162C65.4226 285.929 64.1942 288.411 62.3545 290.545L61.5342 291.521L60.6748 292.459C59.7957 293.478 59.1949 294.562 58.7998 295.701L58.4092 296.873L58.0186 298.006C57.2583 300.212 56.183 302.292 54.8545 304.256L54.1514 305.311L53.5264 306.17C53.5271 306.23 53.5321 306.59 53.8779 307.303L54.6201 308.787L55.3623 310.311C56.2722 312.186 56.8516 314.592 56.0654 317.107C55.275 319.627 53.4037 321.25 51.5732 322.264L50.1279 323.084L48.6826 323.865C47.9684 324.261 47.6567 324.589 47.5498 324.725L47.5107 324.803L47.3545 326.014L47.2373 327.225C47.0269 329.079 46.8255 330.949 46.6514 332.811L46.417 335.232C46.2798 336.699 46.3276 338.248 46.5732 339.881L46.9639 342.459C47.3217 344.835 47.4199 347.188 47.1982 349.49L46.9639 351.912C46.7263 354.356 46.0625 356.712 45.0107 358.943L44.5029 360.037L43.9561 361.131C43.0277 363.1 41.9392 365.047 40.6748 366.912L39.9326 367.967L39.2295 369.021C38.3759 370.281 37.7624 371.55 37.3936 372.811L37.0811 373.982L36.7295 375.154C36.6729 375.361 36.5734 375.959 37.2764 377.264L38.0186 378.67L38.7607 380.037C39.6398 381.665 40.2696 383.541 40.2061 385.584C40.1376 387.694 39.3578 389.601 38.1357 391.17L36.4951 393.279C35.5694 394.468 34.9691 395.606 34.6592 396.717L34.0342 399.061C33.3285 401.58 32.0755 403.904 30.4014 406.014L29.542 407.068L28.7217 408.123C28.6694 408.189 28.6215 408.25 28.6045 408.279Z" fill="#1E1E1E"/>
<path d="M85.8141 276.165C85.8141 284.666 91.9868 292.07 101.589 293.096C110.554 293.096 118.735 289.797 118.735 281.296C118.735 272.795 110.734 265.882 102.732 265.134C97.2451 264.621 85.8141 267.664 85.8141 276.165Z" fill="#FDFDFB"/>
<path d="M101.099 263.005L100.524 263.181L99.9502 263.368C99.5857 263.484 99.2272 263.591 98.8838 263.685L98.333 263.837L97.7939 263.978C97.6388 264.02 97.4535 264.043 97.2314 264.013L96.0127 263.849H95.2861C94.8281 263.916 94.4137 264.103 94.0674 264.388L93.5986 264.892L93.1885 265.431L92.79 265.97C92.7359 266.042 92.6932 266.069 92.6846 266.075H92.6963L92.1455 266.192L91.5947 266.321C90.9865 266.459 90.4334 266.736 89.9658 267.153L89.5557 267.528L89.1455 267.892C89.0162 268.007 88.838 268.117 88.6064 268.208L88.0322 268.431L87.4697 268.653C86.6045 268.993 86.0231 269.703 85.8643 270.622L85.7588 271.231L85.6533 271.829C85.6213 272.016 85.5658 272.163 85.4775 272.286L85.1377 272.755L84.7979 273.235C84.4189 273.764 84.0937 274.533 84.3525 275.403L84.458 275.72C84.4539 275.732 84.4367 275.736 84.4346 275.743C84.3608 275.974 84.3543 276.183 84.3525 276.271C84.3485 276.48 84.3732 276.714 84.3994 276.915L84.4697 277.466L84.54 278.028C84.5795 278.331 84.5999 278.647 84.5986 278.966V280.114C84.5961 280.787 84.7775 281.423 85.1377 281.989L85.7705 282.974C85.8402 283.085 85.8834 283.218 85.8994 283.396L86.0166 284.614C86.077 285.282 86.3004 285.91 86.708 286.454L87.4111 287.392C87.6548 287.716 87.9059 288.036 88.1611 288.353L88.5244 288.81L88.8994 289.255C89.422 289.902 90.1371 290.247 90.9033 290.345L91.5596 290.427L92.2275 290.521L92.3799 290.556L92.7666 290.966L93.1533 291.364C93.4196 291.643 93.7061 291.939 93.9971 292.231L94.8525 293.087C95.4338 293.671 96.1856 293.965 97.0088 293.931L97.6182 293.907L98.2158 293.884C98.4914 293.872 98.7402 293.89 98.9541 293.942L99.4932 294.083L100.032 294.212C100.509 294.328 100.995 294.388 101.485 294.388H102.599C103.071 294.387 103.541 294.332 104.005 294.235L104.556 294.118L105.106 294.013C105.203 293.993 105.331 293.982 105.517 294.036L106.114 294.212L106.712 294.399C107.515 294.637 108.348 294.532 109.067 294.06L109.571 293.731L110.075 293.392C110.138 293.351 110.203 293.329 110.31 293.333L110.931 293.356L111.54 293.392C112.494 293.431 113.306 292.985 113.825 292.22L114.552 291.165C114.65 291.021 114.727 290.968 114.786 290.942L115.313 290.708L115.841 290.485C116.617 290.149 117.146 289.52 117.376 288.728L117.54 288.165L117.704 287.591C117.759 287.403 117.842 287.278 117.927 287.181L118.278 286.771L118.642 286.349C118.928 286.019 119.196 285.656 119.45 285.271L119.79 284.767L120.118 284.263C120.579 283.564 120.713 282.752 120.481 281.942L120.317 281.368L120.142 280.782C120.033 280.404 119.932 280.041 119.837 279.692L119.696 279.153L119.544 278.626C119.436 278.231 119.308 277.845 119.169 277.466L118.993 276.95L118.806 276.446C118.642 276 118.422 275.577 118.161 275.181L117.868 274.724L117.575 274.278C117.453 274.092 117.349 273.881 117.271 273.646L117.095 273.118L116.919 272.579C116.704 271.93 116.3 271.38 115.747 270.974L114.856 270.317C114.778 270.259 114.692 270.174 114.622 270.024L114.376 269.474L114.118 268.923L113.802 268.396C113.437 267.912 112.931 267.562 112.313 267.399L111.739 267.259L111.165 267.106C111.108 267.091 111.066 267.068 111.013 267.001L110.263 266.04C109.893 265.571 109.441 265.189 108.915 264.903L108.411 264.622L107.896 264.353C107.293 264.026 106.637 263.89 105.962 263.942L104.767 264.036C104.701 264.041 104.635 264.028 104.532 263.966L103.993 263.638L103.454 263.298L102.903 263.04C102.332 262.831 101.717 262.808 101.099 263.005ZM102.423 266.192L102.95 266.521C103.563 266.898 104.259 267.08 104.989 267.024L105.599 266.978L106.196 266.931C106.316 266.922 106.391 266.949 106.466 266.989L106.981 267.259L107.485 267.54C107.636 267.622 107.778 267.739 107.907 267.903L108.282 268.372L108.657 268.853C109.103 269.421 109.698 269.815 110.403 270.001L110.978 270.153L111.446 270.271L111.646 270.728L111.903 271.278C112.169 271.853 112.556 272.35 113.075 272.731L113.521 273.06L113.978 273.399C114.022 273.433 114.052 273.458 114.071 273.517L114.247 274.056L114.423 274.583C114.58 275.058 114.795 275.516 115.067 275.931L115.653 276.821C115.787 277.025 115.896 277.247 115.981 277.478L116.169 277.993L116.356 278.497C116.466 278.795 116.563 279.107 116.649 279.423L116.802 279.95L116.942 280.489C117.041 280.85 117.148 281.225 117.259 281.614L117.423 282.188L117.575 282.669L117.282 283.114L116.942 283.63C116.755 283.913 116.569 284.163 116.38 284.38L116.017 284.79L115.653 285.212C115.262 285.663 114.986 286.191 114.821 286.759L114.657 287.321L114.528 287.778L114.118 287.954L113.591 288.188C112.951 288.466 112.447 288.919 112.067 289.478L111.704 290.017L111.458 290.38L111.048 290.368L110.427 290.333C109.713 290.304 109.027 290.487 108.423 290.884L107.919 291.224L107.509 291.493L106.97 291.341L106.372 291.165C105.762 290.984 105.121 290.939 104.485 291.071L103.946 291.188L103.396 291.294C103.13 291.349 102.863 291.387 102.599 291.388H101.485C101.235 291.388 100.981 291.354 100.735 291.294L99.6572 291.036C99.1503 290.913 98.6282 290.862 98.0986 290.884L97.4893 290.907L96.9268 290.919L96.1182 290.11C95.843 289.833 95.5823 289.563 95.333 289.302L94.9346 288.892L94.5479 288.481C94.0094 287.919 93.3175 287.636 92.6025 287.544L91.9463 287.45L91.2783 287.368C91.2513 287.365 91.2325 287.36 91.2197 287.356L90.8682 286.923L90.4932 286.466C90.2604 286.177 90.0356 285.883 89.8135 285.587L89.1104 284.649C89.0542 284.573 89.0176 284.485 89.0049 284.345L88.8877 283.126C88.8308 282.494 88.6343 281.896 88.29 281.356L87.9854 280.864L87.6689 280.372C87.6174 280.29 87.5984 280.218 87.5986 280.126V278.978C87.6004 278.529 87.5737 278.08 87.5166 277.642L87.4463 277.079L87.4229 276.821C87.4624 276.743 87.4965 276.671 87.5166 276.61C87.621 276.294 87.5945 276.016 87.5869 275.931C87.5666 275.706 87.514 275.481 87.4697 275.333L87.3525 274.946L87.3291 274.853L87.5752 274.501L87.915 274.032C88.2798 273.523 88.5131 272.947 88.6182 272.333L88.7236 271.735L88.7822 271.36L89.1338 271.231L89.708 271.009C90.2359 270.801 90.7166 270.506 91.1377 270.13L91.5479 269.767L91.9697 269.392C92.0503 269.321 92.1415 269.278 92.2627 269.251L93.3643 268.993C94.1424 268.817 94.7529 268.36 95.1924 267.774L95.5908 267.224L95.8838 266.849L96.2236 266.896L96.8213 266.978C97.4099 267.058 98.0044 267.029 98.5791 266.872L99.1299 266.731L99.6689 266.579C100.054 266.474 100.452 266.355 100.853 266.228L101.438 266.04L101.942 265.876L102.423 266.192Z" fill="#1E1E1E"/>
<path d="M174.446 277.513C174.446 286.014 168.273 293.419 158.671 294.445C149.706 294.445 141.524 291.145 141.524 282.644C141.524 274.144 149.526 267.231 157.528 266.483C163.015 265.97 174.446 269.013 174.446 277.513Z" fill="#FDFDFB"/>
<path d="M157.415 264.318C158.132 264.253 158.818 264.411 159.431 264.752L159.981 265.068L160.544 265.373C160.787 265.509 160.989 265.58 161.153 265.607L161.704 265.701L162.243 265.783C162.543 265.832 162.851 265.863 163.169 265.877L163.731 265.9L164.294 265.936C164.688 265.953 165.094 265.974 165.501 266.006L166.673 266.1C167.499 266.163 168.196 266.554 168.7 267.178L169.099 267.658L169.485 268.139C169.578 268.252 169.66 268.291 169.731 268.314L170.271 268.502L170.821 268.689C171.457 268.902 171.998 269.282 172.415 269.814L172.767 270.26L173.118 270.693C173.421 271.08 173.667 271.504 173.868 271.947L174.103 272.439L174.325 272.943C174.389 273.084 174.497 273.255 174.688 273.447L175.146 273.893L175.591 274.35C176.003 274.763 176.411 275.32 176.528 276.025L176.599 276.447L176.669 276.857C176.701 277.052 176.748 277.454 176.61 277.877C176.531 278.119 176.369 278.428 176.048 278.674C176.036 278.683 176.013 278.677 176.001 278.686L176.036 279.143C176.065 279.69 176.002 280.234 175.849 280.76L175.685 281.311L175.521 281.85C175.359 282.401 175.1 282.909 174.747 283.361L174.384 283.818L174.032 284.287C174.011 284.314 173.986 284.347 173.985 284.451V285.693C173.983 286.131 173.871 286.596 173.61 287.018C173.35 287.436 172.986 287.734 172.603 287.932L172.04 288.213L171.583 288.447L171.501 289.021L171.396 289.678C171.277 290.416 170.947 291.107 170.341 291.623L169.896 292.01L169.45 292.385C169.108 292.675 168.746 292.945 168.372 293.193L167.88 293.51L167.399 293.838C166.943 294.141 166.44 294.37 165.911 294.518L165.349 294.67L164.786 294.834C164.514 294.91 164.251 295.008 164.001 295.139L163.474 295.42L162.958 295.689C162.401 295.983 161.794 296.139 161.165 296.146H160.579L159.993 296.158C159.461 296.164 158.936 296.09 158.423 295.947L157.849 295.795L157.286 295.631C156.98 295.546 156.679 295.499 156.396 295.467L155.845 295.396L155.294 295.338C155.117 295.318 154.913 295.327 154.673 295.385L154.075 295.525L153.489 295.678C152.938 295.811 152.376 295.85 151.813 295.795L151.228 295.736L150.653 295.678C149.94 295.608 149.298 295.32 148.767 294.857L148.31 294.459L147.841 294.061C147.568 293.823 147.303 293.61 147.044 293.428L146.587 293.111L146.13 292.783C145.856 292.591 145.573 292.415 145.286 292.244L144.806 291.951L144.325 291.67C143.956 291.45 143.59 291.201 143.235 290.932L142.767 290.58L142.298 290.217C141.679 289.745 141.288 289.092 141.161 288.33L141.067 287.744L140.962 287.158C140.902 286.8 140.839 286.457 140.763 286.139L140.505 285.061C140.399 284.615 140.34 284.16 140.317 283.701L140.282 283.15L140.259 282.6C140.242 282.267 140.206 281.923 140.165 281.568L140.106 280.982L140.036 280.408C139.976 279.89 139.983 279.367 140.06 278.85L140.142 278.264L140.235 277.678C140.333 277.022 140.593 276.423 141.009 275.908L141.384 275.451L141.759 274.982C142.076 274.59 142.433 274.24 142.825 273.928L143.739 273.201C143.852 273.112 143.929 273.004 143.985 272.873L144.22 272.334L144.454 271.807C144.661 271.329 144.926 270.878 145.251 270.471L145.614 270.014L145.978 269.568C146.452 268.974 147.093 268.603 147.817 268.455L148.415 268.326L149.024 268.209C149.276 268.157 149.471 268.078 149.622 267.986L150.091 267.693L150.56 267.412C150.846 267.239 151.137 267.051 151.427 266.85L151.896 266.521L152.376 266.193C152.739 265.941 153.116 265.703 153.513 265.49L154.567 264.928C155.09 264.648 155.652 264.478 156.243 264.424L156.829 264.365L157.415 264.318ZM157.099 267.354L156.513 267.412C156.327 267.43 156.156 267.485 155.985 267.576L154.931 268.139C154.633 268.299 154.351 268.47 154.087 268.654L153.618 268.982L153.138 269.311C152.799 269.546 152.46 269.771 152.118 269.979L151.649 270.26L151.169 270.553C150.693 270.841 150.172 271.038 149.622 271.15L149.013 271.268L148.415 271.396C148.37 271.406 148.351 271.417 148.345 271.42H148.333L148.321 271.432L147.595 272.346C147.438 272.543 147.31 272.757 147.208 272.99L146.739 274.068C146.486 274.652 146.1 275.149 145.603 275.545L144.688 276.271C144.471 276.444 144.272 276.645 144.091 276.869L143.716 277.326L143.341 277.795C143.259 277.896 143.218 278.002 143.2 278.123L143.118 278.697L143.024 279.283C142.986 279.543 142.983 279.802 143.013 280.057L143.083 280.643L143.153 281.217C143.202 281.634 143.227 282.045 143.247 282.447L143.282 282.998L143.306 283.549C143.32 283.825 143.359 284.103 143.423 284.369L143.552 284.896L143.681 285.436C143.775 285.829 143.856 286.242 143.927 286.666L144.021 287.252L144.126 287.838H144.114L145.052 288.541C145.322 288.746 145.592 288.932 145.86 289.092L146.341 289.373L146.821 289.666C147.173 289.875 147.517 290.098 147.853 290.334L148.31 290.65L148.767 290.979C149.116 291.224 149.467 291.49 149.81 291.787L150.278 292.197L150.735 292.596C150.821 292.67 150.884 292.695 150.946 292.701L151.521 292.748L152.106 292.807C152.32 292.828 152.548 292.818 152.786 292.76L153.372 292.619L153.97 292.467C154.517 292.335 155.077 292.299 155.634 292.361L156.735 292.479C157.187 292.529 157.644 292.623 158.095 292.748L158.657 292.9L159.22 293.064C159.461 293.132 159.71 293.161 159.958 293.158L160.544 293.146H161.13C161.284 293.145 161.428 293.112 161.563 293.041L162.079 292.76L162.595 292.49C163.035 292.258 163.498 292.073 163.978 291.939L164.54 291.787L165.114 291.623C165.338 291.56 165.544 291.469 165.735 291.342L166.228 291.014L166.708 290.686C166.983 290.503 167.253 290.313 167.505 290.1L167.95 289.713L168.396 289.338L168.407 289.326C168.414 289.313 168.431 289.277 168.442 289.209L168.548 288.541L168.653 287.885L168.817 287.252C169.054 286.656 169.49 286.165 170.106 285.846L170.669 285.553L170.985 285.377V284.439C170.989 283.716 171.207 283.022 171.665 282.436L172.028 281.979L172.38 281.521C172.504 281.362 172.597 281.194 172.649 281.018L172.802 280.467L172.966 279.916C173.025 279.714 173.047 279.506 173.036 279.295L173.013 278.732L172.978 278.158C172.965 277.924 172.965 277.571 173.071 277.221C173.126 277.042 173.23 276.751 173.481 276.494L173.47 276.471L173.024 276.014L172.567 275.568C172.161 275.161 171.83 274.694 171.595 274.174L171.36 273.682L171.138 273.178C171.039 272.961 170.91 272.749 170.751 272.545L170.399 272.1L170.06 271.654C170.014 271.596 169.962 271.556 169.872 271.525L169.321 271.35L168.782 271.162C168.127 270.944 167.578 270.55 167.153 270.025L166.755 269.545L166.38 269.076L165.853 269.041L165.267 268.994C164.893 268.965 164.523 268.939 164.165 268.924L163.04 268.877C162.605 268.858 162.173 268.817 161.751 268.748L161.212 268.654L160.673 268.572C160.116 268.481 159.578 268.276 159.079 267.998L158.528 267.693L157.966 267.377C157.835 267.304 157.749 267.301 157.685 267.307L157.099 267.354Z" fill="#1E1E1E"/>
<mask id="mask0_625_2346" style="mask-type:alpha" maskUnits="userSpaceOnUse" x="85" y="265" width="34" height="29">
<path d="M102.192 270.748C100.48 270.588 97.2736 271.022 94.6338 272.333C92.0276 273.627 91.2871 275.012 91.2871 276.303C91.2872 281.9 95.2162 286.897 101.874 287.73C105.672 287.692 108.737 286.956 110.68 285.798C112.373 284.788 113.208 283.533 113.208 281.434C113.208 278.97 112.047 276.478 109.896 274.41C107.724 272.323 104.863 270.998 102.192 270.748Z" fill="#FDFDFB" stroke="black" stroke-width="11"/>
</mask>
<g mask="url(#mask0_625_2346)">
<path d="M92.0221 274.37C91.5574 281.413 97.4419 288.53 104.68 289.133C111.917 289.737 119.488 285.068 119.953 278.025C120.418 270.981 113.6 264.229 106.362 263.626C99.1247 263.022 92.4867 267.326 92.0221 274.37Z" fill="#1E1E1E"/>
</g>
<mask id="mask1_625_2346" style="mask-type:alpha" maskUnits="userSpaceOnUse" x="141" y="266" width="34" height="29">
<path d="M158.02 272.096C159.732 271.936 162.938 272.37 165.578 273.681C168.184 274.975 168.925 276.36 168.925 277.65C168.925 283.248 164.996 288.245 158.338 289.078C154.54 289.04 151.475 288.304 149.532 287.146C147.838 286.136 147.004 284.881 147.004 282.781C147.004 280.318 148.165 277.826 150.316 275.758C152.488 273.67 155.349 272.345 158.02 272.096Z" fill="#FDFDFB" stroke="black" stroke-width="11"/>
</mask>
<g mask="url(#mask1_625_2346)">
<path d="M174.245 275.403C174.703 282.329 168.918 289.325 161.801 289.917C154.685 290.509 147.241 285.918 146.783 278.993C146.325 272.068 153.028 265.43 160.144 264.838C167.26 264.246 173.787 268.478 174.245 275.403Z" fill="#1E1E1E"/>
</g>
</g>
</svg>
